<?xml version="1.0" encoding="UTF-8"?>
<svg version="1.1" xmlns="http://www.w3.org/2000/svg" width="500" height="500">
<path d="M0 0 C1.55074219 -0.0309375 1.55074219 -0.0309375 3.1328125 -0.0625 C9.17107649 -0.09330747 13.58744586 0.24070744 18.875 3.25 C21.7444861 6.48736893 22.7753512 8.45280958 23.3125 12.75 C22.84317147 16.50462827 21.77607994 19.00232177 19.875 22.25 C20.679375 23.095625 21.48375 23.94125 22.3125 24.8125 C25.1012795 28.19717255 25.875 30.78893852 25.875 35.25 C24.30069272 40.41022943 22.55759912 43.50151791 17.875 46.25 C11.42884802 48.2921463 5.08474533 48.53151561 -1.625 48.4375 C-2.52992188 48.43685547 -3.43484375 48.43621094 -4.3671875 48.43554688 C-10.98416241 48.39083759 -10.98416241 48.39083759 -12.125 47.25 C-12.22313987 45.81259647 -12.2529828 44.37043673 -12.25439453 42.9296875 C-12.25754669 42.01203613 -12.26069885 41.09438477 -12.26394653 40.14892578 C-12.2619223 39.15103027 -12.25989807 38.15313477 -12.2578125 37.125 C-12.25876923 36.10776855 -12.25972595 35.09053711 -12.26071167 34.04248047 C-12.26139361 31.88704364 -12.25953835 29.73160478 -12.25537109 27.57617188 C-12.25002305 24.26427629 -12.25531563 20.95251633 -12.26171875 17.640625 C-12.26105797 15.55208303 -12.25977681 13.46354115 -12.2578125 11.375 C-12.25983673 10.37710449 -12.26186096 9.37920898 -12.26394653 8.35107422 C-12.26079437 7.43342285 -12.25764221 6.51577148 -12.25439453 5.5703125 C-12.25359894 4.75836426 -12.25280334 3.94641602 -12.25198364 3.10986328 C-11.90776355 -1.93174921 -3.76985445 0.01838953 0 0 Z M-3.125 8.25 C-3.125 11.88 -3.125 15.51 -3.125 19.25 C-0.85475032 19.33097324 1.41632075 19.38917704 3.6875 19.4375 C5.58435547 19.48970703 5.58435547 19.48970703 7.51953125 19.54296875 C10.80694761 19.53897289 10.80694761 19.53897289 12.80078125 17.89453125 C14.34263912 15.53408702 14.2888927 14.0092847 13.875 11.25 C12.85385064 9.46529754 12.85385064 9.46529754 10.875 8.25 C7.44419882 7.88601382 7.44419882 7.88601382 3.6875 8.0625 C1.77904297 8.10310547 1.77904297 8.10310547 -0.16796875 8.14453125 C-1.14378906 8.17933594 -2.11960937 8.21414062 -3.125 8.25 Z M-3.125 27.25 C-3.125 31.54 -3.125 35.83 -3.125 40.25 C-0.72793877 40.35854617 1.66415838 40.43753157 4.0625 40.5 C4.73603516 40.53351563 5.40957031 40.56703125 6.10351562 40.6015625 C9.72869271 40.67229766 11.72175826 40.34453618 14.83203125 38.42578125 C17.14885765 36.36390716 17.14885765 36.36390716 17.375 33.1875 C16.82218996 29.93974099 16.40859142 29.21665402 13.875 27.25 C11.94935138 26.84011951 11.94935138 26.84011951 9.86328125 26.95703125 C9.10595703 26.96669922 8.34863281 26.97636719 7.56835938 26.98632812 C6.78267578 27.01146484 5.99699219 27.03660156 5.1875 27.0625 C4.39021484 27.07603516 3.59292969 27.08957031 2.77148438 27.10351562 C0.80570033 27.13882911 -1.15973582 27.19263553 -3.125 27.25 Z " fill="#1B3958" transform="translate(348.125,220.75)"/>
<path d="M0 0 C6.24663544 1.09068238 8.4048977 5.73594448 11.9375 10.6875 C12.92448052 11.86520139 13.92199734 13.03430207 14.9375 14.1875 C16.9375 16.6875 16.9375 16.6875 16.9375 18.6875 C17.5975 18.6875 18.2575 18.6875 18.9375 18.6875 C22.9375 24.09926471 22.9375 24.09926471 22.9375 26.6875 C23.5975 26.6875 24.2575 26.6875 24.9375 26.6875 C25.5975 27.3475 26.2575 28.0075 26.9375 28.6875 C27.2675 19.4475 27.5975 10.2075 27.9375 0.6875 C30.2475 0.6875 32.5575 0.6875 34.9375 0.6875 C35.9375 1.6875 35.9375 1.6875 36.05775452 3.51612854 C36.05553391 4.31332809 36.05331329 5.11052765 36.05102539 5.93188477 C36.05094986 6.83274307 36.05087433 7.73360138 36.05079651 8.66175842 C36.04563522 9.64091721 36.04047394 10.62007599 36.03515625 11.62890625 C36.0337413 12.62631332 36.03232635 13.6237204 36.03086853 14.65135193 C36.02525114 17.85093124 36.01269571 21.05044169 36 24.25 C35.99498724 26.41341045 35.99042395 28.57682199 35.98632812 30.74023438 C35.97527607 36.05601325 35.95852104 41.37175171 35.9375 46.6875 C31.92497063 48.02500979 31.92497063 48.02500979 28.9375 46.6875 C27.11279105 44.64098689 25.49410938 42.63621501 23.875 40.4375 C22.90850938 39.1636472 21.93969407 37.89155536 20.96875 36.62109375 C20.47246094 35.96995605 19.97617188 35.31881836 19.46484375 34.64794922 C16.58575539 30.95244417 13.52260793 27.41349855 10.46655273 23.86425781 C8.46694119 21.53292546 6.6446831 19.24827466 4.9375 16.6875 C4.6075 26.9175 4.2775 37.1475 3.9375 47.6875 C1.6275 47.6875 -0.6825 47.6875 -3.0625 47.6875 C-4.62156782 46.12843218 -4.18972371 44.62595719 -4.19189453 42.45898438 C-4.19504669 41.56135376 -4.19819885 40.66372314 -4.20144653 39.7388916 C-4.1994223 38.76286987 -4.19739807 37.78684814 -4.1953125 36.78125 C-4.19626923 35.7862146 -4.19722595 34.7911792 -4.19821167 33.76599121 C-4.1988936 31.65763282 -4.19703844 29.54927235 -4.19287109 27.44091797 C-4.18752303 24.20144973 -4.19281567 20.96212015 -4.19921875 17.72265625 C-4.19855797 15.67968719 -4.19727681 13.63671822 -4.1953125 11.59375 C-4.19733673 10.61772827 -4.19936096 9.64170654 -4.20144653 8.6361084 C-4.19829437 7.73847778 -4.19514221 6.84084717 -4.19189453 5.91601562 C-4.19109894 5.12183228 -4.19030334 4.32764893 -4.18948364 3.50939941 C-3.97298746 0.40321766 -3.13059467 0.70278656 0 0 Z " fill="#162C44" transform="translate(71.0625,221.3125)"/>
<path d="M0 0 C0.66209473 -0.00095673 1.32418945 -0.00191345 2.00634766 -0.00289917 C3.40852961 -0.00358076 4.8107147 -0.00172792 6.21289062 0.00244141 C8.36595713 0.00779004 10.51881502 0.0024958 12.671875 -0.00390625 C14.03125046 -0.00324546 15.3906258 -0.00196429 16.75 0 C18.61785156 0.00169189 18.61785156 0.00169189 20.5234375 0.00341797 C23.375 0.1328125 23.375 0.1328125 24.375 1.1328125 C24.375 3.4428125 24.375 5.7528125 24.375 8.1328125 C16.785 8.1328125 9.195 8.1328125 1.375 8.1328125 C1.375 11.7628125 1.375 15.3928125 1.375 19.1328125 C7.645 19.1328125 13.915 19.1328125 20.375 19.1328125 C21.375 25.1328125 21.375 25.1328125 20.375 27.1328125 C14.105 27.1328125 7.835 27.1328125 1.375 27.1328125 C1.375 31.4228125 1.375 35.7128125 1.375 40.1328125 C8.965 40.1328125 16.555 40.1328125 24.375 40.1328125 C24.375 42.4428125 24.375 44.7528125 24.375 47.1328125 C21.03595549 48.24582734 18.50870628 48.26217888 14.9921875 48.265625 C13.74308594 48.26691406 12.49398438 48.26820313 11.20703125 48.26953125 C9.24830078 48.26373047 9.24830078 48.26373047 7.25 48.2578125 C5.93644531 48.26167969 4.62289063 48.26554687 3.26953125 48.26953125 C1.39974609 48.26759766 1.39974609 48.26759766 -0.5078125 48.265625 C-1.65652832 48.26449707 -2.80524414 48.26336914 -3.98876953 48.26220703 C-6.625 48.1328125 -6.625 48.1328125 -7.625 47.1328125 C-7.72313987 45.69540897 -7.7529828 44.25324923 -7.75439453 42.8125 C-7.75754669 41.89484863 -7.76069885 40.97719727 -7.76394653 40.03173828 C-7.7619223 39.03384277 -7.75989807 38.03594727 -7.7578125 37.0078125 C-7.75876923 35.99058105 -7.75972595 34.97334961 -7.76071167 33.92529297 C-7.76139361 31.76985614 -7.75953835 29.61441728 -7.75537109 27.45898438 C-7.75002305 24.14708879 -7.75531563 20.83532883 -7.76171875 17.5234375 C-7.76105797 15.43489553 -7.75977681 13.34635365 -7.7578125 11.2578125 C-7.75983673 10.25991699 -7.76186096 9.26202148 -7.76394653 8.23388672 C-7.76079437 7.31623535 -7.75764221 6.39858398 -7.75439453 5.453125 C-7.75359894 4.64117676 -7.75280334 3.82922852 -7.75198364 2.99267578 C-7.45665838 -1.33279957 -3.4862058 0.0031578 0 0 Z " fill="#496789" transform="translate(426.625,220.8671875)"/>
<path d="M0 0 C1.2065625 0.0309375 1.2065625 0.0309375 2.4375 0.0625 C7.98243073 11.55562915 13.03155103 23.26065934 18.08081055 34.97705078 C18.36048172 35.62579666 18.64015289 36.27454254 18.92829895 36.94294739 C19.70029159 38.73478835 20.47103143 40.52716891 21.24169922 42.31958008 C21.93793304 43.91659662 22.65837185 45.5042437 23.4375 47.0625 C20.22298731 48.66975635 17.00137464 48.11998185 13.4375 48.0625 C11.4575 42.6175 11.4575 42.6175 9.4375 37.0625 C2.8375 36.7325 -3.7625 36.4025 -10.5625 36.0625 C-11.5525 39.0325 -12.5425 42.0025 -13.5625 45.0625 C-13.8925 45.7225 -14.2225 46.3825 -14.5625 47.0625 C-17.21110427 47.65605614 -19.85447322 47.80459269 -22.5625 48.0625 C-23.5625 45.0625 -23.5625 45.0625 -21.875 41.5 C-21.49859375 40.79230469 -21.1221875 40.08460938 -20.734375 39.35546875 C-19.55368281 37.0452477 -18.57354522 34.72662534 -17.625 32.3125 C-17.29242188 31.466875 -16.95984375 30.62125 -16.6171875 29.75 C-16.26914062 28.863125 -15.92109375 27.97625 -15.5625 27.0625 C-12.90185139 20.36436364 -10.03158381 13.82141957 -6.8125 7.375 C-6.50658936 6.76237305 -6.20067871 6.14974609 -5.88549805 5.51855469 C-3.12957959 0.07633121 -3.12957959 0.07633121 0 0 Z M-1.5625 13.0625 C-2.4019882 15.16421867 -3.23389656 17.26896625 -4.0625 19.375 C-4.5265625 20.54675781 -4.990625 21.71851563 -5.46875 22.92578125 C-6.72712513 25.98096448 -6.72712513 25.98096448 -6.5625 29.0625 C-2.2725 29.0625 2.0175 29.0625 6.4375 29.0625 C5.67675498 26.95466499 4.90352644 24.85133243 4.125 22.75 C3.48111328 20.99236328 3.48111328 20.99236328 2.82421875 19.19921875 C1.59801438 16.425579 0.74906568 14.94022344 -1.5625 13.0625 Z " fill="#1D3652" transform="translate(307.5625,220.9375)"/>
<path d="M0 0 C3 0.125 3 0.125 4 1.125 C4.13466467 3.41808734 4.20372966 5.71507132 4.24609375 8.01171875 C4.27905776 9.43945867 4.31226893 10.86719289 4.34570312 12.29492188 C4.39294077 14.54837764 4.43731274 16.8018147 4.47680664 19.05541992 C4.51678934 21.22861121 4.56829582 23.40130614 4.62109375 25.57421875 C4.6461499 26.87705811 4.67120605 28.17989746 4.69702148 29.5222168 C4.99456012 33.06031317 5.63546991 35.85538191 7 39.125 C8.66682687 40.17175713 8.66682687 40.17175713 11 40.125 C12.9490625 40.310625 12.9490625 40.310625 14.9375 40.5 C18.42316432 40.46098137 18.97042101 40.14765624 21.9375 37.875 C25.26203017 33.44229311 25.15402346 29.64649462 25.31640625 24.171875 C25.33718735 23.51165344 25.35796844 22.85143188 25.37937927 22.17120361 C25.44450147 20.07256985 25.50358502 17.97381628 25.5625 15.875 C25.60572079 14.44790453 25.6493362 13.02082095 25.69335938 11.59375 C25.80014411 8.10429278 25.90151566 4.61470247 26 1.125 C28.3260857 0.74436779 30.66055264 0.41230055 33 0.125 C35.67600887 2.80100887 34.23010624 10.52417378 34.24023438 14.37792969 C34.24984045 16.58828821 34.28079926 18.79767651 34.3125 21.0078125 C34.43781949 37.65583466 34.43781949 37.65583466 29.125 44.5625 C24.58234052 47.90269079 20.57218534 48.39901804 15 48.375 C13.205625 48.38273437 13.205625 48.38273437 11.375 48.390625 C8.14195026 48.13617201 5.90582541 47.51187122 3 46.125 C3 45.465 3 44.805 3 44.125 C2.401875 44.104375 1.80375 44.08375 1.1875 44.0625 C-1.73939403 42.80811684 -2.23996268 41.02320911 -3.38684082 38.16473389 C-4.42274199 34.71870748 -4.38887292 31.39388575 -4.328125 27.8203125 C-4.32625183 27.05572723 -4.32437866 26.29114197 -4.32244873 25.50338745 C-4.31577055 23.90162741 -4.30194136 22.2998825 -4.28125 20.69824219 C-4.24982354 18.23617553 -4.24024682 15.77474827 -4.234375 13.3125 C-4.22521474 11.75259628 -4.21484211 10.19269911 -4.203125 8.6328125 C-4.19887512 7.89435089 -4.19462524 7.15588928 -4.19024658 6.39505005 C-4.10205545 0.17091898 -4.10205545 0.17091898 0 0 Z " fill="#1C2E43" transform="translate(204,220.875)"/>
<path d="M0 0 C2.51124274 1.73855267 3.45219892 2.83012686 4.4375 5.6875 C3.4475 7.0075 2.4575 8.3275 1.4375 9.6875 C-0.83378917 9.18276907 -2.80562524 8.57873344 -4.9375 7.625 C-8.07742444 6.50359841 -10.25118631 6.2647791 -13.5625 6.6875 C-16.08561011 8.29299147 -16.08561011 8.29299147 -17.5625 10.6875 C-17.52001147 12.77444246 -17.52001147 12.77444246 -16.5625 14.6875 C-14.78568643 15.68829179 -14.78568643 15.68829179 -12.5625 16.1875 C1.92943672 20.50277415 1.92943672 20.50277415 6.4375 27.6875 C7.63352499 31.79883591 7.70444411 34.61683154 6.1875 38.5625 C4.4375 41.6875 4.4375 41.6875 1.4375 42.6875 C1.4375 43.3475 1.4375 44.0075 1.4375 44.6875 C-4.10958114 48.18944516 -11.2712076 47.24203154 -17.5625 46.6875 C-21.56641384 45.45552651 -24.57436117 43.67563883 -27.5625 40.6875 C-27.19568342 37.75296739 -26.69812754 36.82312754 -24.5625 34.6875 C-21.49150214 34.94341649 -19.54784745 35.69601892 -16.875 37.25 C-12.37862918 39.20125526 -8.39223425 38.94521309 -3.5625 38.6875 C-3.5625 38.0275 -3.5625 37.3675 -3.5625 36.6875 C-2.9025 36.6875 -2.2425 36.6875 -1.5625 36.6875 C-2.2225 33.7175 -2.8825 30.7475 -3.5625 27.6875 C-4.26375 27.58953125 -4.965 27.4915625 -5.6875 27.390625 C-13.17267042 26.21089705 -20.41542916 24.65750368 -25.5625 18.6875 C-27.12561512 13.99815463 -27.08571579 10.16994475 -25.4375 5.5 C-19.34442279 -3.63961581 -9.4170865 -3.46945292 0 0 Z " fill="#375676" transform="translate(273.5625,222.3125)"/>
<path d="M0 0 C0.495 1.485 0.495 1.485 1 3 C-0.9375 5.6875 -0.9375 5.6875 -3 8 C-8 6 -8 6 -10.3125 4.875 C-14.8919892 3.38400352 -19.17923083 3.51446156 -23.8125 4.75 C-26.28676428 6.1638653 -27.38328549 7.69040784 -29 10 C-29.66 10 -30.32 10 -31 10 C-31.93363733 21.78489007 -31.93363733 21.78489007 -27 32 C-23.15623226 34.70810909 -19.74185865 35.52971502 -15.01953125 35.3671875 C-11.51155372 34.7293734 -8.99387329 32.89995805 -6 31 C-3.75 30.0625 -3.75 30.0625 -2 30 C-0.1875 31.1875 -0.1875 31.1875 1 33 C1 34.9375 1 34.9375 0 37 C-6.30094506 42.95089255 -12.15372328 43.44809796 -20.546875 43.31640625 C-26.58411478 42.76322025 -30.1064188 40.50625777 -34.75 36.8125 C-39.93843976 30.32695031 -41.7190485 24.23061259 -41.37109375 15.921875 C-40.33749562 7.78364973 -36.64222719 2.74993565 -30.35546875 -2.3984375 C-20.97826262 -8.77431563 -8.88286103 -6.20903013 0 0 Z " fill="#325070" transform="translate(156,226)"/>
<path d="M0 0 C1.134375 0.020625 2.26875 0.04125 3.4375 0.0625 C4.28675523 5.09226416 4.51757798 9.86241075 4.31640625 14.96484375 C4.29279526 15.6874086 4.26918427 16.40997345 4.24485779 17.1544342 C4.16898009 19.43652827 4.08463556 21.71821568 4 24 C3.94670304 25.55792356 3.89396333 27.1158663 3.84179688 28.67382812 C3.71450425 32.47038129 3.57573818 36.26626689 3.4375 40.0625 C11.0275 40.0625 18.6175 40.0625 26.4375 40.0625 C26.4375 42.3725 26.4375 44.6825 26.4375 47.0625 C19.58188939 47.90812598 12.77496961 48.1709896 5.875 48.1875 C5.07723145 48.19201172 4.27946289 48.19652344 3.45751953 48.20117188 C-2.31490462 48.18629769 -2.31490462 48.18629769 -4.5625 47.0625 C-4.58777002 40.52971214 -4.60533292 33.99693679 -4.61743164 27.46411133 C-4.62247317 25.23982268 -4.62930623 23.01553737 -4.63793945 20.79125977 C-4.65001298 17.60171691 -4.65572996 14.41221771 -4.66015625 11.22265625 C-4.66531754 10.22162369 -4.67047882 9.22059113 -4.67579651 8.18922424 C-4.67587204 7.26834518 -4.67594757 6.34746613 -4.67602539 5.39868164 C-4.678246 4.58371719 -4.68046661 3.76875275 -4.68275452 2.92909241 C-4.46133302 -0.5078154 -3.55794927 0.06242016 0 0 Z " fill="#0A1D35" transform="translate(386.5625,220.9375)"/>
<path d="M0 0 C2.33294775 -0.04241723 4.66702567 -0.04092937 7 0 C8 1 8 1 8.11352539 4.69360352 C8.11336624 6.33871292 8.10766988 7.98382731 8.09765625 9.62890625 C8.0962413 10.49313705 8.09482635 11.35736786 8.09336853 12.24778748 C8.08775239 15.01939292 8.07519719 17.7909188 8.0625 20.5625 C8.05748708 22.4368478 8.05292381 24.31119685 8.04882812 26.18554688 C8.03862681 30.79042021 8.01905467 35.3951206 8 40 C15.26 40 22.52 40 30 40 C30 42.31 30 44.62 30 47 C26.38368006 47.82867998 23.0390921 48.12848651 19.33203125 48.1328125 C18.27435547 48.13410156 17.21667969 48.13539063 16.12695312 48.13671875 C15.03318359 48.13285156 13.93941406 48.12898438 12.8125 48.125 C11.70712891 48.12886719 10.60175781 48.13273437 9.46289062 48.13671875 C8.40908203 48.13542969 7.35527344 48.13414062 6.26953125 48.1328125 C5.30635986 48.13168457 4.34318848 48.13055664 3.35083008 48.12939453 C1 48 1 48 -1 47 C-1.02472278 40.94938454 -1.04287086 34.89879851 -1.05493164 28.84814453 C-1.05995973 26.78987109 -1.06678306 24.73160122 -1.07543945 22.67333984 C-1.08757166 19.71450926 -1.09324357 16.75572592 -1.09765625 13.796875 C-1.10281754 12.87694763 -1.10797882 11.95702026 -1.11329651 11.00921631 C-1.11337204 10.1486261 -1.11344757 9.28803589 -1.11352539 8.40136719 C-1.115746 7.64635925 -1.11796661 6.89135132 -1.12025452 6.11346436 C-0.99775975 3.9606277 -0.59128419 2.06919263 0 0 Z " fill="#1D2A39" transform="translate(165,221)"/>
<path d="M0 0 C1.55074219 -0.0309375 1.55074219 -0.0309375 3.1328125 -0.0625 C9.17308964 -0.09331774 13.56796135 0.28067195 18.875 3.25 C20.4375 5.0625 20.4375 5.0625 20.875 7.25 C20 10.5 20 10.5 18.875 13.25 C18.215 13.25 17.555 13.25 16.875 13.25 C16.545 14.9 16.215 16.55 15.875 18.25 C16.535 18.25 17.195 18.25 17.875 18.25 C17.875 18.91 17.875 19.57 17.875 20.25 C14.875 22.25 14.875 22.25 13.171875 21.91015625 C12.41390625 21.69230469 11.6559375 21.47445312 10.875 21.25 C8.28843327 21.02711499 5.71547222 20.83685615 3.125 20.6875 C2.42761719 20.64431641 1.73023438 20.60113281 1.01171875 20.55664062 C-0.70031922 20.45110404 -2.41263561 20.3501009 -4.125 20.25 C-3.795 19.59 -3.465 18.93 -3.125 18.25 C-1.64386719 18.28480469 -1.64386719 18.28480469 -0.1328125 18.3203125 C1.78917969 18.34738281 1.78917969 18.34738281 3.75 18.375 C5.02617187 18.39820313 6.30234375 18.42140625 7.6171875 18.4453125 C10.96093338 18.60641524 10.96093338 18.60641524 12.875 16.25 C13.20833333 13.75 13.20833333 13.75 12.875 11.25 C10.01706684 8.39206684 7.72834416 8.84200059 3.75 8.625 C2.46867187 8.55023438 1.18734375 8.47546875 -0.1328125 8.3984375 C-1.12023437 8.34945312 -2.10765625 8.30046875 -3.125 8.25 C-4.74354031 11.48708061 -4.46738623 15.04294885 -4.6484375 18.62109375 C-5.176044 21.53157878 -5.84218018 22.44938009 -8.125 24.25 C-8.455 23.59 -8.785 22.93 -9.125 22.25 C-9.785 27.2 -10.445 32.15 -11.125 37.25 C-11.455 37.25 -11.785 37.25 -12.125 37.25 C-12.1496501 32.14136104 -12.16783607 27.03275641 -12.17993164 21.92407227 C-12.18497204 20.18480832 -12.1918043 18.44554864 -12.20043945 16.70629883 C-12.21251792 14.21174063 -12.21823108 11.71723827 -12.22265625 9.22265625 C-12.22781754 8.44036148 -12.23297882 7.65806671 -12.23829651 6.85206604 C-12.23849226 4.98432886 -12.18699694 3.11670796 -12.125 1.25 C-9.67319956 -1.20180044 -3.28977247 0.01604767 0 0 Z " fill="#516D89" transform="translate(348.125,220.75)"/>
<path d="M0 0 C3 0.125 3 0.125 4 1.125 C4.09804851 2.5317522 4.12798186 3.94335136 4.12939453 5.35351562 C4.13254669 6.25114624 4.13569885 7.14877686 4.13894653 8.0736084 C4.1369223 9.04963013 4.13489807 10.02565186 4.1328125 11.03125 C4.13376923 12.0262854 4.13472595 13.0213208 4.13571167 14.04650879 C4.1363936 16.15486718 4.13453844 18.26322765 4.13037109 20.37158203 C4.12502303 23.61105027 4.13031567 26.85037985 4.13671875 30.08984375 C4.13605797 32.13281281 4.13477681 34.17578178 4.1328125 36.21875 C4.13483673 37.19477173 4.13686096 38.17079346 4.13894653 39.1763916 C4.13579437 40.07402222 4.13264221 40.97165283 4.12939453 41.89648438 C4.12820114 43.0877594 4.12820114 43.0877594 4.12698364 44.30310059 C4 46.125 4 46.125 3 47.125 C0.66702567 47.16592937 -1.66705225 47.16741723 -4 47.125 C-4.02527002 40.59221214 -4.04283292 34.05943679 -4.05493164 27.52661133 C-4.05997317 25.30232268 -4.06680623 23.07803737 -4.07543945 20.85375977 C-4.08751298 17.66421691 -4.09322996 14.47471771 -4.09765625 11.28515625 C-4.10281754 10.28412369 -4.10797882 9.28309113 -4.11329651 8.25172424 C-4.11337204 7.33084518 -4.11344757 6.40996613 -4.11352539 5.46118164 C-4.115746 4.64621719 -4.11796661 3.83125275 -4.12025452 2.99159241 C-3.91578893 -0.18212552 -3.23001922 0.13458413 0 0 Z " fill="#516984" transform="translate(53,221.875)"/>
<path d="M0 0 C0.33 0 0.66 0 1 0 C1.0928125 1.485 1.0928125 1.485 1.1875 3 C1.87858796 7.72243441 3.9651218 11.35814616 7 15 C10.84549851 17.73457672 14.23921793 18.5303663 18.98046875 18.3671875 C22.48844628 17.7293734 25.00612671 15.89995805 28 14 C30.25 13.0625 30.25 13.0625 32 13 C33.8125 14.1875 33.8125 14.1875 35 16 C35 17.9375 35 17.9375 34 20 C27.69905494 25.95089255 21.84627672 26.44809796 13.453125 26.31640625 C7.36025537 25.75812295 3.81829381 23.49504158 -0.8125 19.6875 C-3.37254142 16.54230625 -4.58980187 13.78526867 -6 10 C-5.01 9.34 -4.02 8.68 -3 8 C-3 8.66 -3 9.32 -3 10 C-2.34 10.33 -1.68 10.66 -1 11 C-0.34 11.33 0.32 11.66 1 12 C0.67 11.113125 0.34 10.22625 0 9.3125 C-0.91559277 6.27959895 -1.26817004 4.12865051 -1 1 C-0.67 0.67 -0.34 0.34 0 0 Z " fill="#111E2C" transform="translate(122,243)"/>
<path d="M0 0 C1.32 0.33 2.64 0.66 4 1 C5.19463679 4.58391038 4.97360642 6.07918075 3.75 9.75 C2 13 2 13 -1 14 C-1 14.66 -1 15.32 -1 16 C-6.54708114 19.50194516 -13.7087076 18.55453154 -20 18 C-24.00391384 16.76802651 -27.01186117 14.98813883 -30 12 C-29.63318342 9.06546739 -29.13562754 8.13562754 -27 6 C-23.92900214 6.25591649 -21.98534745 7.00851892 -19.3125 8.5625 C-14.81612918 10.51375526 -10.82973425 10.25771309 -6 10 C-6 9.34 -6 8.68 -6 8 C-5.34 8 -4.68 8 -4 8 C-3.67 6.02 -3.34 4.04 -3 2 C-2.34 2 -1.68 2 -1 2 C-0.67 1.34 -0.34 0.68 0 0 Z " fill="#1A2533" transform="translate(276,251)"/>
<path d="M0 0 C0.33 0 0.66 0 1 0 C1.06058594 1.13179687 1.12117188 2.26359375 1.18359375 3.4296875 C1.26799917 4.91147145 1.35264717 6.3932416 1.4375 7.875 C1.47681641 8.62136719 1.51613281 9.36773437 1.55664062 10.13671875 C1.71573624 14.19986864 1.71573624 14.19986864 3 18 C4.32 18 5.64 18 7 18 C7 22.95 7 27.9 7 33 C14.59 33 22.18 33 30 33 C30 35.31 30 37.62 30 40 C29.67 39.34 29.34 38.68 29 38 C27.73555054 38.00785522 27.73555054 38.00785522 26.44555664 38.01586914 C23.32772064 38.03287826 20.20990823 38.04543406 17.09204102 38.05493164 C15.74079614 38.05997057 14.38955674 38.06680177 13.03833008 38.07543945 C11.09979566 38.08752419 9.161222 38.09269828 7.22265625 38.09765625 C5.47094116 38.10551147 5.47094116 38.10551147 3.68383789 38.11352539 C1 38 1 38 0 37 C-0.08858646 34.26105915 -0.11523479 31.5474673 -0.09765625 28.80859375 C-0.0962413 27.98875504 -0.09482635 27.16891632 -0.09336853 26.32423401 C-0.08775289 23.69528618 -0.07519779 21.06642227 -0.0625 18.4375 C-0.05748701 16.65950643 -0.05292376 14.88151154 -0.04882812 13.10351562 C-0.03777839 8.73564455 -0.02050331 4.36783652 0 0 Z " fill="#0A1727" transform="translate(420,229)"/>
<path d="M0 0 C2.35953094 2.35953094 2.49141413 3.77895617 3 7 C3.33 7 3.66 7 4 7 C4.33 5.35 4.66 3.7 5 2 C5.99 1.67 6.98 1.34 8 1 C8.33 1.99 8.66 2.98 9 4 C8.34 4 7.68 4 7 4 C7 14.56 7 25.12 7 36 C4.69 36 2.38 36 0 36 C-1.7329298 34.2670702 -1.12820046 32.03785664 -1.13894653 29.72851562 C-1.1369223 28.99310547 -1.13489807 28.25769531 -1.1328125 27.5 C-1.13376923 26.74912109 -1.13472595 25.99824219 -1.13571167 25.22460938 C-1.13639338 23.63411373 -1.13453972 22.04361533 -1.13037109 20.453125 C-1.12502267 18.01035345 -1.13031634 15.56776579 -1.13671875 13.125 C-1.13605797 11.58333293 -1.1347768 10.04166597 -1.1328125 8.5 C-1.13483673 7.76458984 -1.13686096 7.02917969 -1.13894653 6.27148438 C-1.11495161 1.11495161 -1.11495161 1.11495161 0 0 Z " fill="#1F3044" transform="translate(68,233)"/>
<path d="M0 0 C0 9.9 0 19.8 0 30 C-3.96 31.485 -3.96 31.485 -8 33 C-8.66 32.67 -9.32 32.34 -10 32 C-9.67 31.34 -9.34 30.68 -9 30 C-8.84504237 27.75025839 -8.74989072 25.49628464 -8.68359375 23.2421875 C-8.66281265 22.57913605 -8.64203156 21.91608459 -8.62062073 21.23294067 C-8.55520769 19.11373306 -8.49627895 16.994401 -8.4375 14.875 C-8.39430691 13.43878919 -8.35069236 12.00259098 -8.30664062 10.56640625 C-8.19953501 7.04440406 -8.09824425 3.52226175 -8 0 C-4.63458162 -1.08174162 -3.70152678 -0.92538169 0 0 Z " fill="#273F60" transform="translate(238,222)"/>
<path d="M0 0 C0.99 0.33 1.98 0.66 3 1 C4.27657127 6.68654474 3.88032755 9.91142133 1 15 C-2.70266564 18.91424654 -6.78616503 20.19089106 -12 21 C-15.51938245 21.09020566 -18.99055288 20.88004703 -22.5 20.625 C-23.4178125 20.56828125 -24.335625 20.5115625 -25.28125 20.453125 C-27.52178812 20.31309137 -29.76095042 20.1618513 -32 20 C-32 19.67 -32 19.34 -32 19 C-28.7 18.67 -25.4 18.34 -22 18 C-22 17.34 -22 16.68 -22 16 C-23.32 15.34 -24.64 14.68 -26 14 C-24.46279297 13.96132813 -24.46279297 13.96132813 -22.89453125 13.921875 C-21.53381301 13.86556942 -20.17313757 13.80822263 -18.8125 13.75 C-18.13896484 13.73582031 -17.46542969 13.72164063 -16.77148438 13.70703125 C-11.88976354 13.46889853 -9.56186729 12.25582019 -6 9 C-5.34 9 -4.68 9 -4 9 C-4 7.35 -4 5.7 -4 4 C-2.68 3.34 -1.36 2.68 0 2 C0 1.34 0 0.68 0 0 Z " fill="#142436" transform="translate(370,248)"/>
<path d="M0 0 C0.66 0.99 1.32 1.98 2 3 C4.13338796 3.32298452 4.13338796 3.32298452 6.5703125 3.07421875 C7.46621094 3.01943359 8.36210937 2.96464844 9.28515625 2.90820312 C10.69087891 2.79895508 10.69087891 2.79895508 12.125 2.6875 C13.06988281 2.62626953 14.01476562 2.56503906 14.98828125 2.50195312 C17.32681186 2.34841324 19.66342389 2.18053924 22 2 C23.125 7.75 23.125 7.75 22 10 C15.73 10 9.46 10 3 10 C3 14.29 3 18.58 3 23 C10.59 23 18.18 23 26 23 C26 25.31 26 27.62 26 30 C25.67 30 25.34 30 25 30 C25 28.02 25 26.04 25 24 C17.41 24 9.82 24 2 24 C2 19.05 2 14.1 2 9 C0.68 9.33 -0.64 9.66 -2 10 C-4 7 -4 7 -4 3 C-2 1.25 -2 1.25 0 0 Z " fill="#435A75" transform="translate(425,238)"/>
<path d="M0 0 C0.33 0 0.66 0 1 0 C3.08805031 17.68553459 3.08805031 17.68553459 -2.875 25.4375 C-7.55509007 28.8787427 -11.57624254 29.23221977 -17.3125 29.125 C-18.56675781 29.10695313 -19.82101563 29.08890625 -21.11328125 29.0703125 C-22.06589844 29.04710937 -23.01851562 29.02390625 -24 29 C-24 25 -24 25 -23 22 C-22.33613281 21.98582031 -21.67226562 21.97164063 -20.98828125 21.95703125 C-15.01708307 21.65303789 -15.01708307 21.65303789 -10 18.5625 C-9.34 17.716875 -8.68 16.87125 -8 16 C-6 14 -6 14 0 13 C0 8.71 0 4.42 0 0 Z " fill="#1A2632" transform="translate(236,240)"/>
<path d="M0 0 C1.4606285 2.64738916 2 3.89448334 2 7 C4.33075929 6.04134491 4.33075929 6.04134491 6 3 C6 3.66 6 4.32 6 5 C13.92 5 21.84 5 30 5 C30 7.31 30 9.62 30 12 C22.98925775 13.1427201 16.39321482 12.91964618 9.375 12.125 C8.16577881 11.98892334 8.16577881 11.98892334 6.93212891 11.85009766 C1.14054505 11.14054505 1.14054505 11.14054505 0 10 C-0.07205511 8.31391034 -0.08386068 6.62499341 -0.0625 4.9375 C-0.05347656 4.01839844 -0.04445313 3.09929687 -0.03515625 2.15234375 C-0.02355469 1.44207031 -0.01195312 0.73179687 0 0 Z " fill="#1C2733" transform="translate(383,256)"/>
<path d="M0 0 C1.93359375 1.3515625 1.93359375 1.3515625 2.93359375 4.3515625 C0.99609375 7.0390625 0.99609375 7.0390625 -1.06640625 9.3515625 C-6.06640625 7.3515625 -6.06640625 7.3515625 -8.37890625 6.2265625 C-13.5397405 4.54629088 -18.8437308 5.04589364 -24.06640625 6.3515625 C-23.73640625 5.3615625 -23.40640625 4.3715625 -23.06640625 3.3515625 C-22.40640625 3.3515625 -21.74640625 3.3515625 -21.06640625 3.3515625 C-20.84984375 2.4234375 -20.84984375 2.4234375 -20.62890625 1.4765625 C-20.06640625 -0.6484375 -20.06640625 -0.6484375 -19.06640625 -2.6484375 C-20.05640625 -2.9784375 -21.04640625 -3.3084375 -22.06640625 -3.6484375 C-14.14549397 -5.9993932 -7.12236272 -3.62229367 0 0 Z " fill="#395C7A" transform="translate(154.06640625,224.6484375)"/>
<path d="M0 0 C2.33294775 -0.04241723 4.66702567 -0.04092937 7 0 C8 1 8 1 8.11352539 3.59204102 C8.10828857 4.71795654 8.10305176 5.84387207 8.09765625 7.00390625 C8.09443359 8.21884766 8.09121094 9.43378906 8.08789062 10.68554688 C8.07951172 11.96494141 8.07113281 13.24433594 8.0625 14.5625 C8.05798828 15.84576172 8.05347656 17.12902344 8.04882812 18.45117188 C8.03699545 21.63416022 8.02051068 24.81705762 8 28 C7.34 28.33 6.68 28.66 6 29 C5.34 29.99 4.68 30.98 4 32 C3.34 32 2.68 32 2 32 C1.38274898 22.79634647 0.87764728 13.67248916 1.0625 4.44140625 C1.17249386 1.99150666 1.17249386 1.99150666 0 0 Z " fill="#33567A" transform="translate(99,222)"/>
<path d="M0 0 C0.66 0 1.32 0 2 0 C3.53597454 3.07194908 3.2265038 5.60244293 3 9 C1.5 12.4375 1.5 12.4375 0 15 C0.495 15.37125 0.99 15.7425 1.5 16.125 C3.59755514 18.74694393 3.21743835 20.73842472 3 24 C2.01 23.67 1.02 23.34 0 23 C-0.66 24.98 -1.32 26.96 -2 29 C-2.33 29 -2.66 29 -3 29 C-3.4640625 27.2984375 -3.4640625 27.2984375 -3.9375 25.5625 C-4.62924531 22.21224901 -4.62924531 22.21224901 -6 21 C-7.34015221 20.84417697 -8.68758903 20.74955858 -10.03515625 20.68359375 C-10.84404297 20.64169922 -11.65292969 20.59980469 -12.48632812 20.55664062 C-13.33646484 20.51732422 -14.18660156 20.47800781 -15.0625 20.4375 C-15.91650391 20.39431641 -16.77050781 20.35113281 -17.65039062 20.30664062 C-19.76672037 20.20023298 -21.88333813 20.09958269 -24 20 C-24 19.34 -24 18.68 -24 18 C-23.08476562 17.96261719 -22.16953125 17.92523438 -21.2265625 17.88671875 C-20.03804688 17.82097656 -18.84953125 17.75523437 -17.625 17.6875 C-16.44164062 17.62949219 -15.25828125 17.57148438 -14.0390625 17.51171875 C-13.03617187 17.34285156 -12.03328125 17.17398438 -11 17 C-10.34 16.01 -9.68 15.02 -9 14 C-5.375 13.3125 -5.375 13.3125 -2 13 C-2 12.34 -2 11.68 -2 11 C-2.66 11 -3.32 11 -4 11 C-4 9.02 -4 7.04 -4 5 C-3.01 5 -2.02 5 -1 5 C-0.67 3.35 -0.34 1.7 0 0 Z " fill="#32445D" transform="translate(368,228)"/>
<path d="M0 0 C0.33 0 0.66 0 1 0 C1.33 5.28 1.66 10.56 2 16 C2.66 16 3.32 16 4 16 C4.33 10.72 4.66 5.44 5 0 C5.33 0 5.66 0 6 0 C7.43728492 28.14173284 7.43728492 28.14173284 7 36 C6.505 36.495 6.505 36.495 6 37 C4.02 37 2.04 37 0 37 C0 24.79 0 12.58 0 0 Z " fill="#193655" transform="translate(50,232)"/>
<path d="M0 0 C1.65 3.63 3.3 7.26 5 11 C4.01 11.99 3.02 12.98 2 14 C2 14.99 2 15.98 2 17 C1.34 17 0.68 17 0 17 C-0.33 17.66 -0.66 18.32 -1 19 C-1.66 17.35 -2.32 15.7 -3 14 C-3.66 15.65 -4.32 17.3 -5 19 C-5.66 18.67 -6.32 18.34 -7 18 C-9.09821215 18.39938767 -9.09821215 18.39938767 -11 19 C-10.67 17.02 -10.34 15.04 -10 13 C-9.34 13 -8.68 13 -8 13 C-8.05220703 12.09507812 -8.05220703 12.09507812 -8.10546875 11.171875 C-8.32465786 4.70057749 -8.32465786 4.70057749 -6.8125 1.4375 C-5 0 -5 0 0 0 Z " fill="#385775" transform="translate(310,221)"/>
<path d="M0 0 C1.02544922 -0.00128906 2.05089844 -0.00257813 3.10742188 -0.00390625 C4.72680664 0.00189453 4.72680664 0.00189453 6.37890625 0.0078125 C7.45462891 0.00394531 8.53035156 0.00007812 9.63867188 -0.00390625 C11.1787793 -0.00197266 11.1787793 -0.00197266 12.75 0 C13.69673584 0.00112793 14.64347168 0.00225586 15.61889648 0.00341797 C17.94140625 0.1328125 17.94140625 0.1328125 19.94140625 1.1328125 C19.94140625 1.7928125 19.94140625 2.4528125 19.94140625 3.1328125 C8.55640625 2.6378125 8.55640625 2.6378125 -3.05859375 2.1328125 C-3.05859375 5.4328125 -3.05859375 8.7328125 -3.05859375 12.1328125 C-2.39859375 12.1328125 -1.73859375 12.1328125 -1.05859375 12.1328125 C-0.87296875 10.92625 -0.87296875 10.92625 -0.68359375 9.6953125 C-0.47734375 8.8496875 -0.27109375 8.0040625 -0.05859375 7.1328125 C2.58599004 5.81052061 4.61901926 6.03604056 7.56640625 6.0703125 C9.07074219 6.08384766 9.07074219 6.08384766 10.60546875 6.09765625 C11.37632812 6.10925781 12.1471875 6.12085938 12.94140625 6.1328125 C12.94140625 6.4628125 12.94140625 6.7928125 12.94140625 7.1328125 C12.31492187 7.18179688 11.6884375 7.23078125 11.04296875 7.28125 C10.22570312 7.35601562 9.4084375 7.43078125 8.56640625 7.5078125 C7.75429688 7.57742187 6.9421875 7.64703125 6.10546875 7.71875 C3.73806434 7.96173838 3.73806434 7.96173838 1.94140625 10.1328125 C1.59614037 12.92553274 1.49884218 15.69299363 1.3828125 18.50390625 C0.89116395 21.43204319 0.23423144 22.32912335 -2.05859375 24.1328125 C-2.38859375 23.4728125 -2.71859375 22.8128125 -3.05859375 22.1328125 C-3.71859375 27.0828125 -4.37859375 32.0328125 -5.05859375 37.1328125 C-5.38859375 37.1328125 -5.71859375 37.1328125 -6.05859375 37.1328125 C-6.08324385 32.02417354 -6.10142982 26.91556891 -6.11352539 21.80688477 C-6.11856579 20.06762082 -6.12539805 18.32836114 -6.1340332 16.58911133 C-6.14611167 14.09455313 -6.15182483 11.60005077 -6.15625 9.10546875 C-6.16141129 8.32317398 -6.16657257 7.54087921 -6.17189026 6.73487854 C-6.17208601 4.86714136 -6.12059069 2.99952046 -6.05859375 1.1328125 C-4.37836375 -0.5474175 -2.30083447 0.00274446 0 0 Z " fill="#2A4E6F" transform="translate(342.05859375,220.8671875)"/>
<path d="M0 0 C3.6875 0.375 3.6875 0.375 6.0625 2.4375 C7.92727229 5.80843453 8.38806507 8.55720462 8.6875 12.375 C9.3475 12.375 10.0075 12.375 10.6875 12.375 C10.3575 13.365 10.0275 14.355 9.6875 15.375 C7.02083333 14.70833333 4.35416667 14.04166667 1.6875 13.375 C1.6875 15.685 1.6875 17.995 1.6875 20.375 C0.6975 20.045 -0.2925 19.715 -1.3125 19.375 C-2.5 15.8125 -2.5 15.8125 -3.3125 12.375 C-3.6425 12.375 -3.9725 12.375 -4.3125 12.375 C-4.33937279 10.56257948 -4.35883715 8.75004767 -4.375 6.9375 C-4.38660156 5.92816406 -4.39820312 4.91882813 -4.41015625 3.87890625 C-4.26173063 0.07327342 -3.89702353 0.44117248 0 0 Z " fill="#2F567C" transform="translate(71.3125,221.625)"/>
<path d="M0 0 C3 0.125 3 0.125 4 1.125 C4.08775605 3.27058827 4.10695219 5.41904421 4.09765625 7.56640625 C4.09443359 8.87158203 4.09121094 10.17675781 4.08789062 11.52148438 C4.07953401 12.9101569 4.07106905 14.29882877 4.0625 15.6875 C4.05748666 17.08007656 4.05292347 18.47265481 4.04882812 19.86523438 C4.03699434 23.2851987 4.0205088 26.70507844 4 30.125 C3.67 30.125 3.34 30.125 3 30.125 C2.67 27.485 2.34 24.845 2 22.125 C1.01 22.455 0.02 22.785 -1 23.125 C-1.33 22.135 -1.66 21.145 -2 20.125 C-2.66 21.445 -3.32 22.765 -4 24.125 C-4.02887236 20.31251574 -4.04675492 16.5000593 -4.0625 12.6875 C-4.07087891 11.59888672 -4.07925781 10.51027344 -4.08789062 9.38867188 C-4.09111328 8.35419922 -4.09433594 7.31972656 -4.09765625 6.25390625 C-4.10289307 5.29556885 -4.10812988 4.33723145 -4.11352539 3.34985352 C-3.93761142 -0.09768194 -3.51702641 0.14654277 0 0 Z " fill="#385677" transform="translate(204,220.875)"/>
<path d="M0 0 C12.12604144 0.625721 12.12604144 0.625721 17 4 C18.375 6.1875 18.375 6.1875 19 8 C18.01 9.32 17.02 10.64 16 12 C13.75517484 11.50114996 11.8378716 10.92343936 9.75 9.9375 C7.08855073 9.03018775 5.62105726 8.951853 2.875 9.0625 C-1 9 -1 9 -3 7.625 C-4 6 -4 6 -4 4 C-2.35 3.34 -0.7 2.68 1 2 C0.67 1.34 0.34 0.68 0 0 Z " fill="#3B5970" transform="translate(259,220)"/>
<path d="M0 0 C0.33 0 0.66 0 1 0 C1.33 10.23 1.66 20.46 2 31 C9.26 31 16.52 31 24 31 C23.67 31.99 23.34 32.98 23 34 C17.39 34 11.78 34 6 34 C6.33 34.66 6.66 35.32 7 36 C3.37 36 -0.26 36 -4 36 C-4 32.04 -4 28.08 -4 24 C-3.34 24 -2.68 24 -2 24 C-1.01356362 18.87716234 -0.69032947 13.82251071 -0.4375 8.625 C-0.39431641 7.79355469 -0.35113281 6.96210938 -0.30664062 6.10546875 C-0.20138195 4.07046772 -0.10026928 2.03525297 0 0 Z " fill="#142438" transform="translate(171,230)"/>
<path d="M0 0 C6.05818382 0.21256785 9.11850724 1.31457703 13.65234375 5.33203125 C15.20251634 7.25065066 15.7661228 8.54677743 16 11 C15.34 11.66 14.68 12.32 14 13 C13.67 12.34 13.34 11.68 13 11 C9.83333333 12.83333333 9.83333333 12.83333333 8 16 C7.34 13.69 6.68 11.38 6 9 C5.0925 8.87625 4.185 8.7525 3.25 8.625 C0.41029677 8.07890323 -1.52590591 7.42736197 -4 6 C-3.67 4.68 -3.34 3.36 -3 2 C-2.01 2 -1.02 2 0 2 C0 1.34 0 0.68 0 0 Z " fill="#334961" transform="translate(264,241)"/>
<path d="M0 0 C1.98 0 3.96 0 6 0 C5.67 7.59 5.34 15.18 5 23 C3.68 22.34 2.36 21.68 1 21 C1 28.92 1 36.84 1 45 C2.65 45.33 4.3 45.66 6 46 C6 46.66 6 47.32 6 48 C3.69 47.67 1.38 47.34 -1 47 C-1.02527002 40.46721214 -1.04283292 33.93443679 -1.05493164 27.40161133 C-1.05997317 25.17732268 -1.06680623 22.95303737 -1.07543945 20.72875977 C-1.08751298 17.53921691 -1.09322996 14.34971771 -1.09765625 11.16015625 C-1.10281754 10.15912369 -1.10797882 9.15809113 -1.11329651 8.12672424 C-1.11337204 7.20584518 -1.11344757 6.28496613 -1.11352539 5.33618164 C-1.115746 4.52121719 -1.11796661 3.70625275 -1.12025452 2.86659241 C-1 1 -1 1 0 0 Z " fill="#335C81" transform="translate(383,221)"/>
<path d="M0 0 C2.33294775 -0.04241723 4.66702567 -0.04092937 7 0 C8 1 8 1 8.11352539 4.41821289 C8.11336628 5.93636988 8.10767226 7.45453229 8.09765625 8.97265625 C8.0962413 9.77029892 8.09482635 10.56794159 8.09336853 11.38975525 C8.08775316 13.94737435 8.07519812 16.50490718 8.0625 19.0625 C8.05748698 20.79231645 8.05292373 22.52213426 8.04882812 24.25195312 C8.03777875 28.50133553 8.02050386 32.75065312 8 37 C7.67 37 7.34 37 7 37 C6.98018066 36.44538086 6.96036133 35.89076172 6.93994141 35.31933594 C6.84442349 32.79576307 6.73485433 30.27298776 6.625 27.75 C6.5940625 26.87730469 6.563125 26.00460938 6.53125 25.10546875 C6.49257812 24.26113281 6.45390625 23.41679687 6.4140625 22.546875 C6.3826416 21.77182617 6.3512207 20.99677734 6.31884766 20.19824219 C5.96973494 17.79134258 5.19448896 16.10397705 4 14 C3.34 14.66 2.68 15.32 2 16 C1.67 12.7 1.34 9.4 1 6 C0.34 6 -0.32 6 -1 6 C-0.67 4.02 -0.34 2.04 0 0 Z " fill="#516E88" transform="translate(165,221)"/>
<path d="M0 0 C0 0.99 0 1.98 0 3 C0.99 3.33 1.98 3.66 3 4 C3 4.66 3 5.32 3 6 C-3.00754078 8.15908873 -8.11607144 8.08010645 -14.4375 7.625 C-15.82098633 7.53992188 -15.82098633 7.53992188 -17.23242188 7.453125 C-19.48919779 7.31280733 -21.74465997 7.16152895 -24 7 C-24 6.67 -24 6.34 -24 6 C-20.7 5.67 -17.4 5.34 -14 5 C-14 4.34 -14 3.68 -14 3 C-15.32 2.34 -16.64 1.68 -18 1 C-15.56257869 0.83210874 -13.12507454 0.66563867 -10.6875 0.5 C-9.99720703 0.45230469 -9.30691406 0.40460938 -8.59570312 0.35546875 C-5.72337641 0.16120511 -2.87986212 0 0 0 Z " fill="#071421" transform="translate(362,261)"/>
<path d="M0 0 C0.33 0 0.66 0 1 0 C1 3.96 1 7.92 1 12 C5.62 12 10.24 12 15 12 C15 12.33 15 12.66 15 13 C11.7 13.33 8.4 13.66 5 14 C4.67 14.99 4.34 15.98 4 17 C2.68 17.33 1.36 17.66 0 18 C4.29 18.33 8.58 18.66 13 19 C13 19.33 13 19.66 13 20 C9.68751813 20.02888146 6.37506833 20.04675799 3.0625 20.0625 C2.11697266 20.07087891 1.17144531 20.07925781 0.19726562 20.08789062 C-1.15141602 20.09272461 -1.15141602 20.09272461 -2.52734375 20.09765625 C-3.77632446 20.10551147 -3.77632446 20.10551147 -5.05053711 20.11352539 C-7 20 -7 20 -8 19 C-8.07179964 17.48071962 -8.08392007 15.95832518 -8.0625 14.4375 C-8.05347656 13.61121094 -8.04445313 12.78492188 -8.03515625 11.93359375 C-8.02355469 11.29550781 -8.01195312 10.65742188 -8 10 C-7.566875 10.495 -7.13375 10.99 -6.6875 11.5 C-5.00259517 13.33218192 -5.00259517 13.33218192 -2 13 C-2 11.68 -2 10.36 -2 9 C-1.34 9 -0.68 9 0 9 C0 6.03 0 3.06 0 0 Z " fill="#22303E" transform="translate(344,249)"/>
<path d="M0 0 C2 2 2 2 2.24050903 3.83499146 C2.23606781 4.57667572 2.23162659 5.31835999 2.22705078 6.08251953 C2.22689972 6.92324005 2.22674866 7.76396057 2.22659302 8.63015747 C2.21627045 9.53853363 2.20594788 10.44690979 2.1953125 11.3828125 C2.1924826 12.31221649 2.18965271 13.24162048 2.18673706 14.19918823 C2.17552069 17.1745885 2.1504136 20.14969035 2.125 23.125 C2.11497208 25.13931858 2.1058459 27.15364186 2.09765625 29.16796875 C2.07727612 34.11218729 2.0381304 39.05575868 2 44 C15.86 44.495 15.86 44.495 30 45 C29.67 45.66 29.34 46.32 29 47 C25.03069011 47.02465881 21.06140966 47.04284023 17.09204102 47.05493164 C15.74079614 47.05997057 14.38955674 47.06680177 13.03833008 47.07543945 C11.09979566 47.08752419 9.161222 47.09269828 7.22265625 47.09765625 C5.47094116 47.10551147 5.47094116 47.10551147 3.68383789 47.11352539 C1 47 1 47 0 46 C-0.09295815 44.55710213 -0.11746513 43.10970215 -0.11352539 41.66381836 C-0.11344986 40.7429393 -0.11337433 39.82206024 -0.11329651 38.87327576 C-0.10813522 37.87224319 -0.10297394 36.87121063 -0.09765625 35.83984375 C-0.0962413 34.82024063 -0.09482635 33.80063751 -0.09336853 32.75013733 C-0.08775097 29.47922893 -0.0751955 26.20838787 -0.0625 22.9375 C-0.05748726 20.72591244 -0.05292396 18.51432382 -0.04882812 16.30273438 C-0.03777584 10.86846643 -0.02102063 5.43423803 0 0 Z " fill="#9097A2" transform="translate(419,222)"/>
<path d="M0 0 C0.33 0 0.66 0 1 0 C1 4.29 1 8.58 1 13 C0.67 13 0.34 13 0 13 C-0.33 11.02 -0.66 9.04 -1 7 C-0.44687265 11.02992782 0.1558062 15.02022924 1 19 C-0.65 18.67 -2.3 18.34 -4 18 C-4.33 17.01 -4.66 16.02 -5 15 C-5.99 15.495 -5.99 15.495 -7 16 C-8.38226016 13.23547967 -8.09525387 10.9538637 -8.0625 7.875 C-8.05347656 6.77929688 -8.04445313 5.68359375 -8.03515625 4.5546875 C-8.02355469 3.71164063 -8.01195313 2.86859375 -8 2 C-7.01 1.67 -6.02 1.34 -5 1 C-4.01 1.99 -3.02 2.98 -2 4 C-1.34 2.68 -0.68 1.36 0 0 Z " fill="#2C4766" transform="translate(123,237)"/>
<path d="M0 0 C2.8992226 0.46761655 3.86675182 0.86675182 6 3 C5.89729893 6.08103199 5.00625395 6.99409349 2.75 9.125 C-2.34321926 12.59764949 -6.15201806 13.2401492 -12.3125 13.125 C-13.56675781 13.10695313 -14.82101563 13.08890625 -16.11328125 13.0703125 C-17.06589844 13.04710937 -18.01851562 13.02390625 -19 13 C-19 12.67 -19 12.34 -19 12 C-14.71 12 -10.42 12 -6 12 C-5.67 10.68 -5.34 9.36 -5 8 C-6.35444301 6.22809091 -6.35444301 6.22809091 -8 5 C-6.20963542 3.99088542 -4.41927083 2.98177083 -2.62890625 1.97265625 C-1.02121854 1.1027487 -1.02121854 1.1027487 0 0 Z " fill="#1D2734" transform="translate(151,256)"/>
<path d="M0 0 C0.33 0 0.66 0 1 0 C1.33 1.98 1.66 3.96 2 6 C3.32 6 4.64 6 6 6 C7.03159626 9.09478879 6.97482862 10.52631393 6.5625 13.6875 C6.46066406 14.49574219 6.35882813 15.30398437 6.25390625 16.13671875 C6.12822266 17.05904297 6.12822266 17.05904297 6 18 C5.34 18 4.68 18 4 18 C4 19.32 4 20.64 4 22 C2.35 22.66 0.7 23.32 -1 24 C-1.16677223 15.95787245 -0.6466598 8.01396246 0 0 Z " fill="#1A3552" transform="translate(338,240)"/>
<path d="M0 0 C6.93 0 13.86 0 21 0 C20.34 1.32 19.68 2.64 19 4 C16.17482275 4.46588547 13.70920439 4.69615501 10.875 4.75 C9.74384766 4.79447266 9.74384766 4.79447266 8.58984375 4.83984375 C6.72714047 4.91057932 4.86356245 4.95754983 3 5 C3 7.31 3 9.62 3 12 C2.67 11.34 2.34 10.68 2 10 C1.34 10 0.68 10 0 10 C0 6.7 0 3.4 0 0 Z " fill="#375D82" transform="translate(339,223)"/>
<path d="M0 0 C3.08037378 0.25669782 5.17628207 1.09001638 7.9375 2.5 C11.03314147 4.01623256 13.59713893 4.59489749 17 5 C14 7 14 7 11.3125 6.625 C10.549375 6.41875 9.78625 6.2125 9 6 C8.67 7.32 8.34 8.64 8 10 C6.234375 10.65234375 6.234375 10.65234375 4 11 C2.078125 10.00390625 2.078125 10.00390625 0.25 8.5625 C-0.67039063 7.85287109 -0.67039063 7.85287109 -1.609375 7.12890625 C-2.06828125 6.75636719 -2.5271875 6.38382812 -3 6 C-2.42655063 3.13275314 -2.1385485 2.1385485 0 0 Z " fill="#212E3D" transform="translate(249,257)"/>
<path d="M0 0 C0.66 0 1.32 0 2 0 C3.98 4.29 5.96 8.58 8 13 C4.78548731 14.60725635 1.56387464 14.05748185 -2 14 C-2.66 11.03 -3.32 8.06 -4 5 C-3.01 4.34 -2.02 3.68 -1 3 C-0.67 2.01 -0.34 1.02 0 0 Z " fill="#1D2C3D" transform="translate(323,255)"/>
<path d="M0 0 C1.47906892 -0.02689216 2.95827483 -0.04634621 4.4375 -0.0625 C5.26121094 -0.07410156 6.08492188 -0.08570313 6.93359375 -0.09765625 C9 0 9 0 10 1 C10.04092937 3.33297433 10.04241723 5.66705225 10 8 C9.34 7.34 8.68 6.68 8 6 C5.76964703 5.72258755 5.76964703 5.72258755 3.2109375 5.8046875 C2.26992188 5.81113281 1.32890625 5.81757813 0.359375 5.82421875 C-0.62546875 5.84097656 -1.6103125 5.85773438 -2.625 5.875 C-3.61757813 5.88402344 -4.61015625 5.89304688 -5.6328125 5.90234375 C-8.08878134 5.92595884 -10.54427168 5.95889201 -13 6 C-13.33 5.01 -13.66 4.02 -14 3 C-13.07316406 2.95101562 -12.14632813 2.90203125 -11.19140625 2.8515625 C-9.99386719 2.77679688 -8.79632813 2.70203125 -7.5625 2.625 C-6.36753906 2.55539063 -5.17257812 2.48578125 -3.94140625 2.4140625 C-2.97074219 2.27742187 -2.00007813 2.14078125 -1 2 C-0.67 1.34 -0.34 0.68 0 0 Z " fill="#416D92" transform="translate(441,221)"/>
<path d="M0 0 C0.66 0 1.32 0 2 0 C2 0.66 2 1.32 2 2 C3.216875 1.979375 4.43375 1.95875 5.6875 1.9375 C8.91977322 1.93175884 11.84934741 2.21233685 15 3 C14.01 3.495 14.01 3.495 13 4 C13 4.66 13 5.32 13 6 C12.01 6.33 11.02 6.66 10 7 C9.67 7.99 9.34 8.98 9 10 C9.66 10.33 10.32 10.66 11 11 C5.97370003 10.26083824 1.63107238 8.63107238 -2 5 C-2 4.01 -2 3.02 -2 2 C-1.34 2 -0.68 2 0 2 C0 1.34 0 0.68 0 0 Z " fill="#254666" transform="translate(251,237)"/>
<path d="M0 0 C2 4 2 4 2 7 C2.53367187 6.81953125 3.06734375 6.6390625 3.6171875 6.453125 C6.65046543 5.87630493 9.08171898 6.25649497 12.125 6.75 C13.17945313 6.90984375 14.23390625 7.0696875 15.3203125 7.234375 C18 8 18 8 20 11 C18.15985568 12.84014432 15.2801214 12.17355864 12.8125 12.1875 C11.68457031 12.20167969 10.55664062 12.21585937 9.39453125 12.23046875 C5.94086099 11.99598481 3.21912702 11.23587122 0 10 C0 6.7 0 3.4 0 0 Z " fill="#0A1827" transform="translate(383,256)"/>
<path d="M0 0 C0.66 0 1.32 0 2 0 C3.73745313 2.65728125 4.00831972 3.89600355 3.75 7.125 C3 10 3 10 1 12 C0.01 12 -0.98 12 -2 12 C-2.33 11.34 -2.66 10.68 -3 10 C-3.56509277 9.98018066 -4.13018555 9.96036133 -4.71240234 9.93994141 C-7.26707997 9.84481764 -9.82092541 9.73508942 -12.375 9.625 C-13.26445312 9.5940625 -14.15390625 9.563125 -15.0703125 9.53125 C-15.92109375 9.49257813 -16.771875 9.45390625 -17.6484375 9.4140625 C-18.43395996 9.3826416 -19.21948242 9.3512207 -20.02880859 9.31884766 C-22 9 -22 9 -24 7 C-16.74 7 -9.48 7 -2 7 C-1.67 6.34 -1.34 5.68 -1 5 C-1 5.66 -1 6.32 -1 7 C-0.34 7 0.32 7 1 7 C0.67 4.69 0.34 2.38 0 0 Z " fill="#152539" transform="translate(320,248)"/>
<path d="M0 0 C-0.61277612 2.96175123 -1.25372522 4.38058783 -3 7 C0.465 6.505 0.465 6.505 4 6 C4.33 7.32 4.66 8.64 5 10 C4.19175781 9.98839844 3.38351563 9.97679687 2.55078125 9.96484375 C0.94783203 9.95130859 0.94783203 9.95130859 -0.6875 9.9375 C-1.74324219 9.92589844 -2.79898438 9.91429687 -3.88671875 9.90234375 C-6.72410262 9.99134575 -9.2438919 10.35060162 -12 11 C-11.67 10.01 -11.34 9.02 -11 8 C-10.34 8 -9.68 8 -9 8 C-8.7834375 7.071875 -8.7834375 7.071875 -8.5625 6.125 C-8 4 -8 4 -7 2 C-7.99 1.67 -8.98 1.34 -10 1 C-6.61981469 -0.04005702 -3.5219721 -0.08004482 0 0 Z " fill="#526E8A" transform="translate(142,220)"/>
<path d="M0 0 C0.66 0 1.32 0 2 0 C4.32490548 3.48735822 4.023875 4.87787493 3.9375 8.9375 C2.89648461 12.33815027 2.4711747 12.6995367 -0.4375 14.4375 C-1.613125 14.953125 -2.78875 15.46875 -4 16 C-4.66 15.67 -5.32 15.34 -6 15 C-4.36041242 9.76727367 -2.61047965 4.84803364 0 0 Z " fill="#0C1B2B" transform="translate(290,253)"/>
<path d="M0 0 C1.04449911 3.13349732 0.93423645 3.98968256 0 7 C-0.66 7 -1.32 7 -2 7 C-2.33 8.98 -2.66 10.96 -3 13 C-1.02463255 12.65213292 -1.02463255 12.65213292 1 12 C1.33 11.34 1.66 10.68 2 10 C1.52060632 14.71403788 1.03165952 18.66579301 -1 23 C-4.63846825 20.5743545 -4.90505302 19.12710786 -6 15 C-6 11.21286807 -4.73107406 9.16645599 -3 5.8125 C-2.443125 4.72582031 -1.88625 3.63914063 -1.3125 2.51953125 C-0.879375 1.68808594 -0.44625 0.85664063 0 0 Z " fill="#223C58" transform="translate(302,227)"/>
<path d="M0 0 C3.10011632 2.53645881 4.0575938 5.15184135 5 9 C4.8125 11.3125 4.8125 11.3125 4 13 C3.01 13.33 2.02 13.66 1 14 C0.34 14.66 -0.32 15.32 -1 16 C-4 9.5 -4 9.5 -4 5 C-3.34 5 -2.68 5 -2 5 C-2.33 3.68 -2.66 2.36 -3 1 C-2.01 0.67 -1.02 0.34 0 0 Z " fill="#344B67" transform="translate(314,233)"/>
<path d="M0 0 C1.02544922 -0.00128906 2.05089844 -0.00257813 3.10742188 -0.00390625 C4.72680664 0.00189453 4.72680664 0.00189453 6.37890625 0.0078125 C7.45462891 0.00394531 8.53035156 0.00007812 9.63867188 -0.00390625 C11.1787793 -0.00197266 11.1787793 -0.00197266 12.75 0 C13.69673584 0.00112793 14.64347168 0.00225586 15.61889648 0.00341797 C17.94140625 0.1328125 17.94140625 0.1328125 19.94140625 1.1328125 C19.94140625 1.7928125 19.94140625 2.4528125 19.94140625 3.1328125 C8.55640625 2.6378125 8.55640625 2.6378125 -3.05859375 2.1328125 C-3.01734375 4.2365625 -2.97609375 6.3403125 -2.93359375 8.5078125 C-2.86328125 12.09375 -2.86328125 12.09375 -3.05859375 15.1328125 C-3.71859375 15.7928125 -4.37859375 16.4528125 -5.05859375 17.1328125 C-5.25245867 14.48730194 -5.43897642 11.84163467 -5.62109375 9.1953125 C-5.67716797 8.44056641 -5.73324219 7.68582031 -5.79101562 6.90820312 C-5.92035532 4.98535292 -5.99376287 3.05891702 -6.05859375 1.1328125 C-4.37836375 -0.5474175 -2.30083447 0.00274446 0 0 Z " fill="#3B5A72" transform="translate(342.05859375,220.8671875)"/>
<path d="M0 0 C2.31 0 4.62 0 7 0 C6.39816251 2.02045442 5.72693904 4.02111039 5 6 C4.01 6.495 4.01 6.495 3 7 C1.88365848 8.65051288 1.88365848 8.65051288 0.875 10.5625 C-0.053125 12.2640625 -0.053125 12.2640625 -1 14 C-1.66 14 -2.32 14 -3 14 C-3.33 14.99 -3.66 15.98 -4 17 C-3.67 14.69 -3.34 12.38 -3 10 C-3.66 9.67 -4.32 9.34 -5 9 C-3.63016497 5.83884224 -3.0109362 5.0072908 0 3 C0 2.01 0 1.02 0 0 Z " fill="#3C5D83" transform="translate(128,222)"/>
<path d="M0 0 C1.0326802 2.78823655 1.04509293 3.8677274 0.0625 6.75 C-0.288125 7.4925 -0.63875 8.235 -1 9 C-1.99 9 -2.98 9 -4 9 C-4.66 10.65 -5.32 12.3 -6 14 C-6.66 13.67 -7.32 13.34 -8 13 C-8.46174617 4.99639964 -8.46174617 4.99639964 -6.8125 1.4375 C-4.44098326 -0.4433581 -2.95061143 -0.31898502 0 0 Z " fill="#345D83" transform="translate(310,221)"/>
<path d="M0 0 C0.33 0 0.66 0 1 0 C1.06058594 1.13179687 1.12117188 2.26359375 1.18359375 3.4296875 C1.26799917 4.91147145 1.35264717 6.3932416 1.4375 7.875 C1.47681641 8.62136719 1.51613281 9.36773437 1.55664062 10.13671875 C1.71573624 14.19986864 1.71573624 14.19986864 3 18 C3.99 18 4.98 18 6 18 C6 21.63 6 25.26 6 29 C4.68 29.33 3.36 29.66 2 30 C-1.64438317 26.35561683 -0.05683695 15.76155196 -0.06811523 10.79077148 C-0.05996482 7.19360521 -0.03561391 3.5970046 0 0 Z " fill="#183456" transform="translate(420,229)"/>
<path d="M0 0 C0.66 0 1.32 0 2 0 C2 8.91 2 17.82 2 27 C1.34 27.33 0.68 27.66 0 28 C-0.66 28.99 -1.32 29.98 -2 31 C-2.66 31 -3.32 31 -4 31 C-4 29.68 -4 28.36 -4 27 C-3.34 26.67 -2.68 26.34 -2 26 C-1.52891722 23.37960236 -1.52891722 23.37960236 -1.3671875 20.21484375 C-1.28339844 19.04501953 -1.19960937 17.87519531 -1.11328125 16.66992188 C-1.03464844 15.43822266 -0.95601563 14.20652344 -0.875 12.9375 C-0.78863281 11.70193359 -0.70226562 10.46636719 -0.61328125 9.19335938 C-0.40034105 6.12938644 -0.19632138 3.06507544 0 0 Z " fill="#41576E" transform="translate(105,223)"/>
<path d="M0 0 C0.99 1.485 0.99 1.485 2 3 C2.66 2.01 3.32 1.02 4 0 C5.32870256 7.80612754 5.32870256 15.19387246 4 23 C3.01 22.67 2.02 22.34 1 22 C0.67 14.74 0.34 7.48 0 0 Z " fill="#234567" transform="translate(166,232)"/>
<path d="M0 0 C0.33 0 0.66 0 1 0 C1.061875 0.969375 1.12375 1.93875 1.1875 2.9375 C1.85625799 7.88225603 4.42590696 11.81116224 7 16 C6.34 16.33 5.68 16.66 5 17 C2.875 16.0625 2.875 16.0625 1 15 C0.67 16.65 0.34 18.3 0 20 C-2.74277578 16.80009492 -4.6302836 13.99500618 -6 10 C-5.01 9.34 -4.02 8.68 -3 8 C-3 8.66 -3 9.32 -3 10 C-2.34 10.33 -1.68 10.66 -1 11 C-0.34 11.33 0.32 11.66 1 12 C0.67 11.113125 0.34 10.22625 0 9.3125 C-0.91559277 6.27959895 -1.26817004 4.12865051 -1 1 C-0.67 0.67 -0.34 0.34 0 0 Z " fill="#23344A" transform="translate(122,243)"/>
<path d="M0 0 C0.33 0 0.66 0 1 0 C2.00415021 8.50503133 2.42317006 15.05824546 -1 23 C-1.78375 22.814375 -2.5675 22.62875 -3.375 22.4375 C-5.97089775 21.74037734 -5.97089775 21.74037734 -8 23 C-7.01 20.03 -6.02 17.06 -5 14 C-3.35 13.67 -1.7 13.34 0 13 C0 8.71 0 4.42 0 0 Z " fill="#142C46" transform="translate(236,240)"/>
<path d="M0 0 C0.33 0 0.66 0 1 0 C1.309375 1.134375 1.61875 2.26875 1.9375 3.4375 C2.62924531 6.78775099 2.62924531 6.78775099 4 8 C6.69235776 8.23678716 9.36498156 8.42198025 12.0625 8.5625 C13.20041992 8.62727539 13.20041992 8.62727539 14.36132812 8.69335938 C16.24065438 8.79973633 18.12030244 8.90039934 20 9 C18 11 18 11 14.5234375 11.1953125 C13.14049032 11.18201493 11.75761346 11.15816232 10.375 11.125 C9.66859375 11.11597656 8.9621875 11.10695312 8.234375 11.09765625 C6.48943902 11.07407603 4.74467705 11.03820461 3 11 C3 10.34 3 9.68 3 9 C0.61435923 9.57584432 -1.66682784 10.22227595 -4 11 C-3.49172849 6.62886504 -2.54826592 3.61004338 0 0 Z " fill="#162B46" transform="translate(296,241)"/>
<path d="M0 0 C3.35882075 1.41231461 5.13329047 3.03368978 7.3125 5.9375 C8.11107422 6.97197266 8.11107422 6.97197266 8.92578125 8.02734375 C9.28027344 8.67832031 9.63476562 9.32929688 10 10 C9.67 10.99 9.34 11.98 9 13 C6.03 12.505 6.03 12.505 3 12 C2.67 12.66 2.34 13.32 2 14 C0.68 12.02 -0.64 10.04 -2 8 C-1.195625 7.87625 -0.39125 7.7525 0.4375 7.625 C1.283125 7.41875 2.12875 7.2125 3 7 C3.33 6.34 3.66 5.68 4 5 C3.34 5 2.68 5 2 5 C1.34 3.35 0.68 1.7 0 0 Z " fill="#324B6A" transform="translate(78,229)"/>
<path d="M0 0 C1.4540625 0.0309375 1.4540625 0.0309375 2.9375 0.0625 C2.6075 0.7225 2.2775 1.3825 1.9375 2.0625 C0.6175 2.3925 -0.7025 2.7225 -2.0625 3.0625 C-2.0625 16.9225 -2.0625 30.7825 -2.0625 45.0625 C-0.4125 45.3925 1.2375 45.7225 2.9375 46.0625 C2.9375 46.7225 2.9375 47.3825 2.9375 48.0625 C0.6275 47.7325 -1.6825 47.4025 -4.0625 47.0625 C-4.08777002 40.52971214 -4.10533292 33.99693679 -4.11743164 27.46411133 C-4.12247317 25.23982268 -4.12930623 23.01553737 -4.13793945 20.79125977 C-4.15001298 17.60171691 -4.15572996 14.41221771 -4.16015625 11.22265625 C-4.16531754 10.22162369 -4.17047882 9.22059113 -4.17579651 8.18922424 C-4.17587204 7.26834518 -4.17594757 6.34746613 -4.17602539 5.39868164 C-4.178246 4.58371719 -4.18046661 3.76875275 -4.18275452 2.92909241 C-3.97583886 -0.28265547 -3.27364722 0.06680913 0 0 Z " fill="#46505F" transform="translate(386.0625,220.9375)"/>
<path d="M0 0 C3.3 0.33 6.6 0.66 10 1 C8.68 2.65 7.36 4.3 6 6 C6.99 6.99 7.98 7.98 9 9 C7.39667209 9.08121924 5.79215974 9.13929134 4.1875 9.1875 C3.29417969 9.22230469 2.40085937 9.25710937 1.48046875 9.29296875 C-1 9 -1 9 -2.82421875 7.61328125 C-4 6 -4 6 -4 4 C-2.35 3.34 -0.7 2.68 1 2 C0.67 1.34 0.34 0.68 0 0 Z " fill="#526D8D" transform="translate(259,220)"/>
<path d="M0 0 C0.33 0.66 0.66 1.32 1 2 C2.65 2 4.3 2 6 2 C6.10832169 4.08218362 6.18573541 6.16599129 6.25 8.25 C6.29640625 9.41015625 6.3428125 10.5703125 6.390625 11.765625 C6 15 6 15 2 19 C2 14.38 2 9.76 2 5 C1.34 5 0.68 5 0 5 C0 3.35 0 1.7 0 0 Z " fill="#3D6086" transform="translate(230,222)"/>
<path d="M0 0 C0.33 0 0.66 0 1 0 C1.33 5.94 1.66 11.88 2 18 C2.66 17.67 3.32 17.34 4 17 C5.09506492 20.28519475 5.09960608 22.73663415 5.0625 26.1875 C5.05347656 27.27417969 5.04445313 28.36085937 5.03515625 29.48046875 C5.02355469 30.31191406 5.01195312 31.14335937 5 32 C4.01 31.67 3.02 31.34 2 31 C-0.31290989 20.65385845 -0.1982842 10.53109421 0 0 Z " fill="#214368" transform="translate(383,224)"/>
<path d="M0 0 C-0.66 0 -1.32 0 -2 0 C-2 0.66 -2 1.32 -2 2 C-1.34 2 -0.68 2 0 2 C0 2.99 0 3.98 0 5 C-5.28 5 -10.56 5 -16 5 C-15.01 4.34 -14.02 3.68 -13 3 C-12.67 2.01 -12.34 1.02 -12 0 C-3.42857143 -1.28571429 -3.42857143 -1.28571429 0 0 Z " fill="#07121E" transform="translate(270,263)"/>
<path d="M0 0 C1.65 0 3.3 0 5 0 C5 0.99 5 1.98 5 3 C5.66 3 6.32 3 7 3 C6.34 4.65 5.68 6.3 5 8 C-1.75 7.125 -1.75 7.125 -4 6 C-3.67 4.68 -3.34 3.36 -3 2 C-2.01 2 -1.02 2 0 2 C0 1.34 0 0.68 0 0 Z " fill="#213C57" transform="translate(264,241)"/>
<path d="M0 0 C0.66 0 1.32 0 2 0 C3.53214888 3.06429776 3.22938548 5.6165642 3 9 C1.625 11.9375 1.625 11.9375 0 14 C-0.66 14 -1.32 14 -2 14 C-2 13.01 -2 12.02 -2 11 C-2.66 11 -3.32 11 -4 11 C-4 9.02 -4 7.04 -4 5 C-3.01 5 -2.02 5 -1 5 C-0.67 3.35 -0.34 1.7 0 0 Z " fill="#35506B" transform="translate(368,228)"/>
<path d="M0 0 C3.14581423 -0.02888514 6.29159469 -0.04675923 9.4375 -0.0625 C10.33533203 -0.07087891 11.23316406 -0.07925781 12.15820312 -0.08789062 C13.01220703 -0.09111328 13.86621094 -0.09433594 14.74609375 -0.09765625 C15.93223267 -0.10551147 15.93223267 -0.10551147 17.14233398 -0.11352539 C19 0 19 0 20 1 C20.04063832 2.66617115 20.042721 4.33388095 20 6 C19.67 5.01 19.34 4.02 19 3 C13.39 3 7.78 3 2 3 C2 2.34 2 1.68 2 1 C1.34 0.67 0.68 0.34 0 0 Z " fill="#132334" transform="translate(430,263)"/>
<path d="M0 0 C-0.33 1.65 -0.66 3.3 -1 5 C-7.6 5 -14.2 5 -21 5 C-21 4.67 -21 4.34 -21 4 C-15.06 3.67 -9.12 3.34 -3 3 C-7.45005466 1.21997814 -10.15382283 0.65734407 -14.8125 0.375 C-15.97394531 0.30023438 -17.13539063 0.22546875 -18.33203125 0.1484375 C-19.21246094 0.09945312 -20.09289062 0.05046875 -21 0 C-21 -0.33 -21 -0.66 -21 -1 C-17.87598221 -1.22537111 -14.75088667 -1.42738648 -11.625 -1.625 C-10.73554688 -1.68945312 -9.84609375 -1.75390625 -8.9296875 -1.8203125 C-7.65351563 -1.89765625 -7.65351563 -1.89765625 -6.3515625 -1.9765625 C-5.17327881 -2.05511475 -5.17327881 -2.05511475 -3.97119141 -2.13525391 C-2 -2 -2 -2 0 0 Z " fill="#12233C" transform="translate(448,242)"/>
<path d="M0 0 C2.3879408 2.3879408 2.35381724 3.76908619 3 7 C3.66 7.66 4.32 8.32 5 9 C4.625 12.625 4.625 12.625 4 16 C2 15 2 15 1 13 C0.34 13.99 -0.32 14.98 -1 16 C-1.02685095 13.52076199 -1.04676547 11.0418116 -1.0625 8.5625 C-1.07506836 7.50192383 -1.07506836 7.50192383 -1.08789062 6.41992188 C-1.09653588 4.61306441 -1.05220011 2.80612397 -1 1 C-0.67 0.67 -0.34 0.34 0 0 Z " fill="#264160" transform="translate(68,233)"/>
<path d="M0 0 C0.33 0 0.66 0 1 0 C1 4.62 1 9.24 1 14 C1.99 14 2.98 14 4 14 C4.66 10.04 5.32 6.08 6 2 C6.33 2 6.66 2 7 2 C7.02685412 4.31243792 7.04632841 6.6249627 7.0625 8.9375 C7.07410156 10.22527344 7.08570313 11.51304687 7.09765625 12.83984375 C7 16 7 16 6 17 C4.02 17 2.04 17 0 17 C0 11.39 0 5.78 0 0 Z " fill="#070F1A" transform="translate(50,252)"/>
<path d="M0 0 C9.24 0 18.48 0 28 0 C27.67 0.66 27.34 1.32 27 2 C21.39 2 15.78 2 10 2 C10.33 2.66 10.66 3.32 11 4 C7.37 4 3.74 4 0 4 C0 2.68 0 1.36 0 0 Z " fill="#091828" transform="translate(167,262)"/>
<path d="M0 0 C1.32 0.33 2.64 0.66 4 1 C5.20568025 4.61704076 4.97946735 6.05866473 3.6875 9.75 C2 13 2 13 0 14 C0.33 12.02 0.66 10.04 1 8 C0.01 8.33 -0.98 8.66 -2 9 C-2.25 3.375 -2.25 3.375 0 0 Z " fill="#273A50" transform="translate(276,251)"/>
<path d="M0 0 C1.33333333 1.33333333 2.66666667 2.66666667 4 4 C6.21858253 3.86358623 6.21858253 3.86358623 8 3 C8.33 3.99 8.66 4.98 9 6 C8.67 6.66 8.34 7.32 8 8 C5.33333333 8 2.66666667 8 0 8 C-4 3.65714286 -4 3.65714286 -4 1 C-2.25 0.25 -2.25 0.25 0 0 Z " fill="#273B55" transform="translate(88,245)"/>
<path d="M0 0 C0.33 0 0.66 0 1 0 C1.05389087 1.95803507 1.09274217 3.91648909 1.125 5.875 C1.14820312 6.96554687 1.17140625 8.05609375 1.1953125 9.1796875 C1 12 1 12 -1 14 C-2.32 14 -3.64 14 -5 14 C-7.25 11 -7.25 11 -9 8 C-7.25 7.375 -7.25 7.375 -5 7 C-3.68 7.66 -2.36 8.32 -1 9 C-0.67 6.03 -0.34 3.06 0 0 Z " fill="#0E1A26" transform="translate(105,254)"/>
<path d="M0 0 C4.11443894 6.83029389 2.16333449 16.43832582 1 24 C-1.1230081 20.81548785 -1.24884244 20.01526637 -1.23046875 16.3671875 C-1.22853516 15.47902344 -1.22660156 14.59085938 -1.22460938 13.67578125 C-1.21236328 12.75152344 -1.20011719 11.82726562 -1.1875 10.875 C-1.18685547 9.94300781 -1.18621094 9.01101562 -1.18554688 8.05078125 C-1.14028159 1.14028159 -1.14028159 1.14028159 0 0 Z " fill="#112B6B" transform="translate(389,221)"/>
<path d="M0 0 C1.32 0.66 2.64 1.32 4 2 C3.01 2.33 2.02 2.66 1 3 C1 6.3 1 9.6 1 13 C0.47921875 12.19175781 -0.0415625 11.38351563 -0.578125 10.55078125 C-3.67836619 7.28552722 -5.32478967 7.32025631 -9.75 7.1875 C-11.50570313 7.11595703 -11.50570313 7.11595703 -13.296875 7.04296875 C-14.18890625 7.02878906 -15.0809375 7.01460937 -16 7 C-16 6.67 -16 6.34 -16 6 C-15.18015625 5.87882813 -14.3603125 5.75765625 -13.515625 5.6328125 C-12.43796875 5.46523437 -11.3603125 5.29765625 -10.25 5.125 C-9.18265625 4.96257812 -8.1153125 4.80015625 -7.015625 4.6328125 C-4.32291129 4.06776118 -2.36427561 3.36577086 0 2 C0 1.34 0 0.68 0 0 Z " fill="#606D7D" transform="translate(362,222)"/>
<path d="M0 0 C-1.3125 1.5 -1.3125 1.5 -3 3 C-3.99 3 -4.98 3 -6 3 C-5.46375 3.556875 -4.9275 4.11375 -4.375 4.6875 C-3.92125 5.450625 -3.4675 6.21375 -3 7 C-3.8125 9.75 -3.8125 9.75 -5 12 C-5.3403125 11.0409375 -5.3403125 11.0409375 -5.6875 10.0625 C-6.85250896 7.72806339 -6.85250896 7.72806339 -9.625 7.25 C-10.40875 7.1675 -11.1925 7.085 -12 7 C-9.87654283 1.40179474 -5.8147806 -0.49840977 0 0 Z " fill="#4B6982" transform="translate(261,221)"/>
<path d="M0 0 C1.65 0.33 3.3 0.66 5 1 C3.25 4.875 3.25 4.875 1 6 C1 6.66 1 7.32 1 8 C-0.32 7.67 -1.64 7.34 -3 7 C-3 6.34 -3 5.68 -3 5 C-4.32 4.67 -5.64 4.34 -7 4 C-6.67 3.01 -6.34 2.02 -6 1 C-3.03 1.495 -3.03 1.495 0 2 C0 1.34 0 0.68 0 0 Z " fill="#1D2A38" transform="translate(210,260)"/>
<path d="M0 0 C0.66 0.66 1.32 1.32 2 2 C1.9765625 4.1640625 1.9765625 4.1640625 1.625 6.625 C1.51414062 7.44226563 1.40328125 8.25953125 1.2890625 9.1015625 C1.19367188 9.72804688 1.09828125 10.35453125 1 11 C0.34 11 -0.32 11 -1 11 C-1 12.32 -1 13.64 -1 15 C-2.65 15.66 -4.3 16.32 -6 17 C-6 13.7 -6 10.4 -6 7 C-5.34 7 -4.68 7 -4 7 C-3.67 7.66 -3.34 8.32 -3 9 C-2.34 8.67 -1.68 8.34 -1 8 C-0.53476937 6.10466658 -0.53476937 6.10466658 -0.375 3.9375 C-0.25125 2.638125 -0.1275 1.33875 0 0 Z " fill="#0B1B2D" transform="translate(343,247)"/>
<path d="M0 0 C1.65 0.33 3.3 0.66 5 1 C6.25541557 4.76624671 5.37061958 6.37188934 4 10 C1 9 1 9 -0.25 7.25 C-1.17574966 4.47275102 -0.77341204 2.78428335 0 0 Z " fill="#3C6083" transform="translate(363,224)"/>
<path d="M0 0 C0.33 0 0.66 0 1 0 C0.85936865 2.29199177 0.71234057 4.58359186 0.5625 6.875 C0.48128906 8.15117187 0.40007813 9.42734375 0.31640625 10.7421875 C0 14 0 14 -1 16 C-1.99 16 -2.98 16 -4 16 C-4.08090971 14.37581255 -4.13914995 12.75048255 -4.1875 11.125 C-4.22230469 10.22007812 -4.25710937 9.31515625 -4.29296875 8.3828125 C-4.19628906 7.59648437 -4.09960938 6.81015625 -4 6 C-3.01 5.34 -2.02 4.68 -1 4 C-0.27617533 1.94074861 -0.27617533 1.94074861 0 0 Z " fill="#12273C" transform="translate(55,250)"/>
<path d="M0 0 C2.5625718 -0.02710123 5.12485365 -0.04688771 7.6875 -0.0625 C8.40873047 -0.07087891 9.12996094 -0.07925781 9.87304688 -0.08789062 C13.71555382 -0.10543632 17.26639526 0.06475779 21 1 C20.67 1.66 20.34 2.32 20 3 C13.4 3 6.8 3 0 3 C0 2.01 0 1.02 0 0 Z " fill="#2D4782" transform="translate(420,221)"/>
<path d="M0 0 C0.33 0 0.66 0 1 0 C1 3.3 1 6.6 1 10 C1.66 10.33 2.32 10.66 3 11 C3.66 11.33 4.32 11.66 5 12 C5.29296875 18.0546875 5.29296875 18.0546875 5 20 C4.01 20.66 3.02 21.32 2 22 C0.39118425 14.57359158 -0.26442904 7.59498961 0 0 Z " fill="#1E3D5E" transform="translate(201,231)"/>
<path d="M0 0 C2.31 0.33 4.62 0.66 7 1 C7 1.66 7 2.32 7 3 C7.66 3 8.32 3 9 3 C8.67 3.99 8.34 4.98 8 6 C7.34 5.67 6.68 5.34 6 5 C6.66 6.65 7.32 8.3 8 10 C7.01 10 6.02 10 5 10 C3.61328125 8.57421875 3.61328125 8.57421875 2.3125 6.6875 C1.87550781 6.07261719 1.43851562 5.45773437 0.98828125 4.82421875 C0 3 0 3 0 0 Z " fill="#202B3A" transform="translate(90,252)"/>
<path d="M0 0 C2.0245738 1.93254772 3.42105792 3.63158688 5 6 C8.52155964 8.34770643 10.50771843 8.37669614 14.6875 8.625 C15.86699219 8.69976562 17.04648437 8.77453125 18.26171875 8.8515625 C19.61716797 8.92503906 19.61716797 8.92503906 21 9 C21 9.33 21 9.66 21 10 C17.68751813 10.02888146 14.37506833 10.04675799 11.0625 10.0625 C10.11697266 10.07087891 9.17144531 10.07925781 8.19726562 10.08789062 C6.84858398 10.09272461 6.84858398 10.09272461 5.47265625 10.09765625 C4.64000244 10.10289307 3.80734863 10.10812988 2.94946289 10.11352539 C1 10 1 10 0 9 C-0.07179964 7.48071962 -0.08392007 5.95832518 -0.0625 4.4375 C-0.05347656 3.61121094 -0.04445313 2.78492188 -0.03515625 1.93359375 C-0.02355469 1.29550781 -0.01195312 0.65742188 0 0 Z " fill="#8C8F93" transform="translate(336,259)"/>
<path d="M0 0 C0.598125 0.350625 1.19625 0.70125 1.8125 1.0625 C1.8125 3.7025 1.8125 6.3425 1.8125 9.0625 C1.35875 8.5675 0.905 8.0725 0.4375 7.5625 C-1.06385519 5.83640663 -1.06385519 5.83640663 -3.1875 6.0625 C-3.8475 6.7225 -4.5075 7.3825 -5.1875 8.0625 C-5.1875 5.4225 -5.1875 2.7825 -5.1875 0.0625 C-2.1875 -0.9375 -2.1875 -0.9375 0 0 Z " fill="#25486A" transform="translate(253.1875,227.9375)"/>
<path d="M0 0 C5.28 0 10.56 0 16 0 C15.01 0.495 15.01 0.495 14 1 C14.33 2.32 14.66 3.64 15 5 C12.69 5 10.38 5 8 5 C8.66 4.34 9.32 3.68 10 3 C8.906875 3.020625 7.81375 3.04125 6.6875 3.0625 C3 3 3 3 0 2 C0 1.34 0 0.68 0 0 Z " fill="#1A3654" transform="translate(344,241)"/>
<path d="M0 0 C1.32 0.66 2.64 1.32 4 2 C4 2.66 4 3.32 4 4 C3.01 4 2.02 4 1 4 C0.34 5.65 -0.32 7.3 -1 9 C-1.66 8.67 -2.32 8.34 -3 8 C-5.09821215 8.39938767 -5.09821215 8.39938767 -7 9 C-6.67 7.02 -6.34 5.04 -6 3 C-4.68 3 -3.36 3 -2 3 C-1.34 2.01 -0.68 1.02 0 0 Z " fill="#374D69" transform="translate(306,231)"/>
<path d="M0 0 C-0.66 1.65 -1.32 3.3 -2 5 C-6.29 5 -10.58 5 -15 5 C-15 4.67 -15 4.34 -15 4 C-11.535 3.505 -11.535 3.505 -8 3 C-8.99 2.01 -9.98 1.02 -11 0 C-6.98195309 -0.84098656 -3.98196457 -1.05404945 0 0 Z " fill="#071321" transform="translate(147,263)"/>
<path d="M0 0 C2.93453261 0.36681658 3.86437246 0.86437246 6 3 C5.8125 5 5.8125 5 5 7 C4.01 7.66 3.02 8.32 2 9 C0.02 5.535 0.02 5.535 -2 2 C-1.34 1.34 -0.68 0.68 0 0 Z " fill="#2C3645" transform="translate(151,256)"/>
<path d="M0 0 C0.99 0.33 1.98 0.66 3 1 C4.0070238 6.03511899 3.97387813 9.23947038 2 14 C0.23537317 10.91190305 0 9.76687864 0 6 C-0.66 6 -1.32 6 -2 6 C-2 5.01 -2 4.02 -2 3 C-1.34 2.67 -0.68 2.34 0 2 C0 1.34 0 0.68 0 0 Z " fill="#293244" transform="translate(370,248)"/>
<path d="M0 0 C0.99 0.33 1.98 0.66 3 1 C3.8125 2.9375 3.8125 2.9375 4 5 C3.34 5.66 2.68 6.32 2 7 C1.67 6.34 1.34 5.68 1 5 C-2.16666667 6.83333333 -2.16666667 6.83333333 -4 10 C-4.33 7.36 -4.66 4.72 -5 2 C-3.68 2 -2.36 2 -1 2 C-0.67 1.34 -0.34 0.68 0 0 Z " fill="#2B3E55" transform="translate(276,247)"/>
<path d="M0 0 C0.16682272 4.92127034 0.24828052 8.50343896 -2 13 C-4.62386487 9.93882432 -5 9.26826873 -5 5 C-4.34 5 -3.68 5 -3 5 C-3.33 3.68 -3.66 2.36 -4 1 C-1 0 -1 0 0 0 Z " fill="#1D3B59" transform="translate(315,233)"/>
<path d="M0 0 C0.763125 0.0825 1.52625 0.165 2.3125 0.25 C2.6425 1.57 2.9725 2.89 3.3125 4.25 C2.6525 4.25 1.9925 4.25 1.3125 4.25 C1.3125 4.91 1.3125 5.57 1.3125 6.25 C-0.3375 5.92 -1.9875 5.59 -3.6875 5.25 C-4.0175 5.91 -4.3475 6.57 -4.6875 7.25 C-5.0175 6.26 -5.3475 5.27 -5.6875 4.25 C-4.12435347 1.21054842 -3.46963346 0.3227566 0 0 Z " fill="#4A627F" transform="translate(307.6875,220.75)"/>
<path d="M0 0 C0.33 0.66 0.66 1.32 1 2 C4.02934491 2.65772428 4.02934491 2.65772428 7 3 C7.33 2.01 7.66 1.02 8 0 C8.99 1.65 9.98 3.3 11 5 C7.78548731 6.60725635 4.56387464 6.05748185 1 6 C0.67 4.02 0.34 2.04 0 0 Z " fill="#50555D" transform="translate(320,263)"/>
<path d="M0 0 C2.436833 1.86002944 2.96476413 2.75301012 3.40625 5.84765625 C3.46882588 7.99348737 3.53132569 10.13932071 3.59375 12.28515625 C3.7278125 13.18105469 3.861875 14.07695312 4 15 C4.99 15.66 5.98 16.32 7 17 C5.00045254 17.04254356 2.99958364 17.04080783 1 17 C0 16 0 16 -0.09765625 12.40234375 C-0.0909822 10.91403133 -0.07902183 9.42573568 -0.0625 7.9375 C-0.05798828 7.17888672 -0.05347656 6.42027344 -0.04882812 5.63867188 C-0.0370068 3.75908129 -0.01907078 1.87953101 0 0 Z " fill="#545E69" transform="translate(67,252)"/>
<path d="M0 0 C0 3.96 0 7.92 0 12 C-1.32 11.67 -2.64 11.34 -4 11 C-4.3682455 3.51234156 -4.3682455 3.51234156 -2.5625 1 C-1 0 -1 0 0 0 Z " fill="#112235" transform="translate(74,256)"/>
<path d="M0 0 C1.134375 0.020625 2.26875 0.04125 3.4375 0.0625 C3.1075 1.0525 2.7775 2.0425 2.4375 3.0625 C0.7875 2.7325 -0.8625 2.4025 -2.5625 2.0625 C-2.5625 5.0325 -2.5625 8.0025 -2.5625 11.0625 C-3.5525 11.5575 -3.5525 11.5575 -4.5625 12.0625 C-4.58937279 10.25007948 -4.60883715 8.43754767 -4.625 6.625 C-4.63660156 5.61566406 -4.64820312 4.60632813 -4.66015625 3.56640625 C-4.50618986 -0.38129207 -4.09874205 0.07190776 0 0 Z " fill="#53667E" transform="translate(71.5625,221.9375)"/>
<path d="M0 0 C1.65 0 3.3 0 5 0 C5.625 1.8125 5.625 1.8125 6 4 C5.01 5.485 5.01 5.485 4 7 C3.34 7 2.68 7 2 7 C1.67 7.66 1.34 8.32 1 9 C0.67 6.03 0.34 3.06 0 0 Z " fill="#3A6187" transform="translate(69,224)"/>
<path d="M0 0 C2.16874252 0.50603992 3.99967627 0.99983813 6 2 C5 4 4 6 3 8 C2.34 8 1.68 8 1 8 C0.67 8.99 0.34 9.98 0 11 C0.33 8.69 0.66 6.38 1 4 C0.34 3.67 -0.32 3.34 -1 3 C-0.67 2.01 -0.34 1.02 0 0 Z " fill="#405C77" transform="translate(124,228)"/>
<path d="M0 0 C0.66 0.33 1.32 0.66 2 1 C1.814375 1.78375 1.62875 2.5675 1.4375 3.375 C0.74037734 5.97089775 0.74037734 5.97089775 2 8 C-2.455 7.01 -2.455 7.01 -7 6 C-2.25 1.125 -2.25 1.125 0 0 Z " fill="#2C4E76" transform="translate(269,221)"/>
<path d="M0 0 C0.99 0.33 1.98 0.66 3 1 C2.35474023 2.4585872 1.7087728 3.91686137 1.0625 5.375 C0.70285156 6.18710937 0.34320313 6.99921875 -0.02734375 7.8359375 C-0.6569903 9.23683785 -1.31312642 10.62625284 -2 12 C-4.5625 12.625 -4.5625 12.625 -7 13 C-5.625 11 -5.625 11 -4 9 C-3.34 9 -2.68 9 -2 9 C-2.04125 8.071875 -2.0825 7.14375 -2.125 6.1875 C-2 3 -2 3 0 0 Z " fill="#2F3D52" transform="translate(295,256)"/>
<path d="M0 0 C0.33 0 0.66 0 1 0 C2.51708428 14.78132118 2.51708428 14.78132118 0 21 C-0.99 20.67 -1.98 20.34 -3 20 C-2.690625 19.113125 -2.38125 18.22625 -2.0625 17.3125 C-0.42489586 11.69122053 -0.33225589 5.81447802 0 0 Z " fill="#0D1C2F" transform="translate(236,240)"/>
<path d="M0 0 C0.33 0 0.66 0 1 0 C1.12117188 0.75925781 1.24234375 1.51851562 1.3671875 2.30078125 C1.53476562 3.29464844 1.70234375 4.28851563 1.875 5.3125 C2.03742188 6.29863281 2.19984375 7.28476563 2.3671875 8.30078125 C2.88085454 11.20059827 2.88085454 11.20059827 5 14 C3.68 14.99 2.36 15.98 1 17 C-0.13480527 13.39006828 -0.10015767 10.0157673 -0.0625 6.25 C-0.05347656 5.07953125 -0.04445313 3.9090625 -0.03515625 2.703125 C-0.02355469 1.81109375 -0.01195312 0.9190625 0 0 Z " fill="#142E4B" transform="translate(383,243)"/>
<path d="M0 0 C0 2.31 0 4.62 0 7 C-1.32 7.33 -2.64 7.66 -4 8 C-4.33 6.35 -4.66 4.7 -5 3 C-1.125 0 -1.125 0 0 0 Z " fill="#163049" transform="translate(426,251)"/>
<path d="M0 0 C0.99 0 1.98 0 3 0 C3 3.3 3 6.6 3 10 C2.01 9.67 1.02 9.34 0 9 C-0.87890625 2.84765625 -0.87890625 2.84765625 -1 1 C-0.67 0.67 -0.34 0.34 0 0 Z " fill="#1D3D5E" transform="translate(385,246)"/>
<path d="M0 0 C0.66 0.33 1.32 0.66 2 1 C2 5.29 2 9.58 2 14 C1.01 14.495 1.01 14.495 0 15 C-1.37252731 12.25494537 -1.13229255 9.99672588 -1.125 6.9375 C-1.12757812 5.85339844 -1.13015625 4.76929688 -1.1328125 3.65234375 C-1 1 -1 1 0 0 Z " fill="#2B3A53" transform="translate(116,238)"/>
<path d="M0 0 C3.96 0 7.92 0 12 0 C11.01 1.485 11.01 1.485 10 3 C7.8359375 3.29296875 7.8359375 3.29296875 5.375 3.1875 C4.55773437 3.16042969 3.74046875 3.13335937 2.8984375 3.10546875 C2.27195312 3.07066406 1.64546875 3.03585938 1 3 C0.67 2.01 0.34 1.02 0 0 Z " fill="#3D688E" transform="translate(348,224)"/>
<path d="M0 0 C2.475 0.99 2.475 0.99 5 2 C5 3.32 5 4.64 5 6 C3.34385343 6.38218767 1.67542976 6.71395102 0 7 C-1 6 -1 6 -1.125 3.5 C-1 1 -1 1 0 0 Z " fill="#111E31" transform="translate(250,259)"/>
<path d="M0 0 C0.99 0.33 1.98 0.66 3 1 C3 3.97 3 6.94 3 10 C2.01 10.33 1.02 10.66 0 11 C0 7.37 0 3.74 0 0 Z " fill="#23496C" transform="translate(101,239)"/>
<path d="M0 0 C0.66 0 1.32 0 2 0 C2.75 2.75 2.75 2.75 3 6 C1.0625 8.375 1.0625 8.375 -1 10 C-1.02689216 8.52093108 -1.04634621 7.04172517 -1.0625 5.5625 C-1.07410156 4.73878906 -1.08570313 3.91507813 -1.09765625 3.06640625 C-1 1 -1 1 0 0 Z " fill="#30567B" transform="translate(233,231)"/>
<path d="M0 0 C1.4540625 0.0309375 1.4540625 0.0309375 2.9375 0.0625 C2.6075 0.7225 2.2775 1.3825 1.9375 2.0625 C0.6175 2.3925 -0.7025 2.7225 -2.0625 3.0625 C-2.3925 8.0125 -2.7225 12.9625 -3.0625 18.0625 C-3.3925 18.0625 -3.7225 18.0625 -4.0625 18.0625 C-4.08934312 15.24993719 -4.10926188 12.43762759 -4.125 9.625 C-4.13337891 8.82255859 -4.14175781 8.02011719 -4.15039062 7.19335938 C-4.1590143 5.14954779 -4.1147815 3.10566098 -4.0625 1.0625 C-3.0625 0.0625 -3.0625 0.0625 0 0 Z " fill="#485C71" transform="translate(386.0625,220.9375)"/>
<path d="M0 0 C2.5625 0.25 2.5625 0.25 5 1 C5.33 1.66 5.66 2.32 6 3 C4.35 3 2.7 3 1 3 C0.67 4.65 0.34 6.3 0 8 C-0.99 7.34 -1.98 6.68 -3 6 C-2.42655063 3.13275314 -2.1385485 2.1385485 0 0 Z " fill="#414754" transform="translate(249,257)"/>
<path d="M0 0 C0.66 0 1.32 0 2 0 C4 3 4 3 4 6 C3.67 6.99 3.34 7.98 3 9 C1 8 1 8 0 6 C-0.66 5.67 -1.32 5.34 -2 5 C-1.34 3.35 -0.68 1.7 0 0 Z " fill="#142440" transform="translate(290,253)"/>
<path d="M0 0 C1.24165475 3.73429999 0.96385935 7.10622052 0.6875 11 C0.60886719 12.216875 0.53023438 13.43375 0.44921875 14.6875 C0 18 0 18 -2 22 C-2 15.4 -2 8.8 -2 2 C-1.34 2 -0.68 2 0 2 C0 1.34 0 0.68 0 0 Z " fill="#4F5A6B" transform="translate(338,236)"/>
<path d="M0 0 C2.25245881 2.68841859 3.88213958 4.64641875 5 8 C4.34 8.66 3.68 9.32 3 10 C0 8 0 8 -0.75 4.4375 C-0.8325 3.303125 -0.915 2.16875 -1 1 C-0.67 0.67 -0.34 0.34 0 0 Z " fill="#3C5169" transform="translate(89,240)"/>
<path d="M0 0 C3 2 3 2 3.6875 5.125 C3.790625 6.07375 3.89375 7.0225 4 8 C3.01 8.495 3.01 8.495 2 9 C2 8.34 2 7.68 2 7 C0.68 6.67 -0.64 6.34 -2 6 C-1.67 5.01 -1.34 4.02 -1 3 C-1.66 2.67 -2.32 2.34 -3 2 C-2.01 1.34 -1.02 0.68 0 0 Z " fill="#2D3A46" transform="translate(363,258)"/>
<path d="M0 0 C0.33 0 0.66 0 1 0 C2.41722796 7.7160189 1.65647386 15.24350887 1 23 C0.67 23 0.34 23 0 23 C-0.1954384 20.10450497 -0.38161395 17.20891002 -0.5625 14.3125 C-0.61857422 13.49587891 -0.67464844 12.67925781 -0.73242188 11.83789062 C-0.98341571 7.70485877 -1.11127743 4.04175718 0 0 Z " fill="#071429" transform="translate(68,244)"/>
<path d="M0 0 C3.91593446 0.78318689 7.36406635 2.39179858 11 4 C11 4.66 11 5.32 11 6 C11.66 6.33 12.32 6.66 13 7 C8.86594138 6.3920502 5.61795765 5.09037553 2 3 C1.34 2.01 0.68 1.02 0 0 Z " fill="#475368" transform="translate(249,241)"/>
<path d="M0 0 C0.33 0 0.66 0 1 0 C1.12375 1.0725 1.2475 2.145 1.375 3.25 C1.7855624 6.84683029 1.7855624 6.84683029 3.125 9.25 C3.41375 9.8275 3.7025 10.405 4 11 C3.67 11.99 3.34 12.98 3 14 C0.50723437 11.50723437 -0.03922708 9.36270521 -1 6 C-1 3 -1 3 0 0 Z " fill="#455A72" transform="translate(297,236)"/>
<path d="M0 0 C2.31 0 4.62 0 7 0 C6.01 0.495 6.01 0.495 5 1 C5 1.66 5 2.32 5 3 C2.35261084 4.4606285 1.10551666 5 -2 5 C-2.33 4.01 -2.66 3.02 -3 2 C-2.01 2 -1.02 2 0 2 C0 1.34 0 0.68 0 0 Z " fill="#2E4A6A" transform="translate(259,240)"/>
<path d="M0 0 C-1.1875 1.5625 -1.1875 1.5625 -3 3 C-5.6875 2.6875 -5.6875 2.6875 -8 2 C-8.33 1.01 -8.66 0.02 -9 -1 C-5.22102349 -2.0497157 -3.35080929 -2.10976881 0 0 Z " fill="#0C1926" transform="translate(225,264)"/>
<path d="M0 0 C1.1446875 0.2784375 1.1446875 0.2784375 2.3125 0.5625 C5.08967375 1.22819173 5.08967375 1.22819173 8 0 C7.67 1.65 7.34 3.3 7 5 C4.03 4.505 4.03 4.505 1 4 C0.67 2.68 0.34 1.36 0 0 Z " fill="#121E2F" transform="translate(320,261)"/>
<path d="M0 0 C2.97 0.33 5.94 0.66 9 1 C8.67 1.99 8.34 2.98 8 4 C5.36 4 2.72 4 0 4 C0 2.68 0 1.36 0 0 Z " fill="#0F212E" transform="translate(258,263)"/>
<path d="M0 0 C1.65 0.33 3.3 0.66 5 1 C5.33 1.99 5.66 2.98 6 4 C-0.75 5.125 -0.75 5.125 -3 4 C-2.67 3.01 -2.34 2.02 -2 1 C-2 1.66 -2 2.32 -2 3 C-1.34 2.34 -0.68 1.68 0 1 C0 0.67 0 0.34 0 0 Z " fill="#25405B" transform="translate(294,249)"/>
<path d="M0 0 C1.65 0 3.3 0 5 0 C5 1.65 5 3.3 5 5 C4.01 5.33 3.02 5.66 2 6 C1.34 5.34 0.68 4.68 0 4 C0 2.68 0 1.36 0 0 Z " fill="#0F2439" transform="translate(421,259)"/>
<path d="M0 0 C0.99 0.99 1.98 1.98 3 3 C3.33 2.34 3.66 1.68 4 1 C4 3.31 4 5.62 4 8 C2.68 7.67 1.36 7.34 0 7 C0 4.69 0 2.38 0 0 Z " fill="#1B3856" transform="translate(69,246)"/>
<path d="M0 0 C1.32 0 2.64 0 4 0 C4.66 0.99 5.32 1.98 6 3 C5.34 3.66 4.68 4.32 4 5 C1.84365964 5 0.07553648 4.5534764 -2 4 C-1.34 2.68 -0.68 1.36 0 0 Z " fill="#506D8C" transform="translate(151,226)"/>
<path d="M0 0 C1 1 1 1 1.0625 4.5625 C1.041875 5.696875 1.02125 6.83125 1 8 C0.67 8 0.34 8 0 8 C-0.33 6.35 -0.66 4.7 -1 3 C-2.98 3 -4.96 3 -7 3 C-7.33 2.34 -7.66 1.68 -8 1 C-5.05549278 0.01849759 -3.06481021 -0.1613058 0 0 Z " fill="#415F8A" transform="translate(450,221)"/>
<path d="M0 0 C0 0.66 0 1.32 0 2 C-5.14089313 3.85072153 -7.95531271 4.21474076 -13 2 C-13 1.67 -13 1.34 -13 1 C-11.39602723 0.83147753 -9.7918131 0.66525114 -8.1875 0.5 C-7.29417969 0.4071875 -6.40085937 0.314375 -5.48046875 0.21875 C-3 0 -3 0 0 0 Z " fill="#1A212B" transform="translate(365,265)"/>
<path d="M0 0 C0.680625 0.309375 1.36125 0.61875 2.0625 0.9375 C5.36965912 2.13370649 8.51545878 2.59005397 12 3 C12 3.33 12 3.66 12 4 C7.91257012 4.88376862 5.04916379 5.34972126 1 4 C0.3125 1.9375 0.3125 1.9375 0 0 Z " fill="#434C56" transform="translate(130,259)"/>
<path d="M0 0 C2.475 0.99 2.475 0.99 5 2 C5 2.99 5 3.98 5 5 C4.01 5 3.02 5 2 5 C1.67 5.66 1.34 6.32 1 7 C0 2.25 0 2.25 0 0 Z " fill="#142536" transform="translate(122,257)"/>
<path d="M0 0 C0.66 0 1.32 0 2 0 C2.33 0.66 2.66 1.32 3 2 C4.65 1.67 6.3 1.34 8 1 C7.67 2.32 7.34 3.64 7 5 C3 5 3 5 0 3 C0 2.01 0 1.02 0 0 Z " fill="#3B4E67" transform="translate(147,228)"/>
<path d="M0 0 C1.32 0.66 2.64 1.32 4 2 C3.34 3.65 2.68 5.3 2 7 C0.68 6.34 -0.64 5.68 -2 5 C-1.34 3.35 -0.68 1.7 0 0 Z " fill="#4B698D" transform="translate(271,222)"/>
<path d="M0 0 C0.33 0 0.66 0 1 0 C1 5.28 1 10.56 1 16 C0.01 16.33 -0.98 16.66 -2 17 C-1.505 15.515 -1.505 15.515 -1 14 C-0.77439324 11.60745424 -0.59151405 9.21071877 -0.4375 6.8125 C-0.35371094 5.54019531 -0.26992187 4.26789063 -0.18359375 2.95703125 C-0.12300781 1.98121094 -0.06242187 1.00539062 0 0 Z " fill="#A9AFB6" transform="translate(106,252)"/>
<path d="M0 0 C0.33 0.66 0.66 1.32 1 2 C1.66 2.33 2.32 2.66 3 3 C2.34 3 1.68 3 1 3 C1.66 4.65 2.32 6.3 3 8 C2.01 8.495 2.01 8.495 1 9 C0.01 6.69 -0.98 4.38 -2 2 C-1.34 1.34 -0.68 0.68 0 0 Z " fill="#17253F" transform="translate(118,251)"/>
<path d="M0 0 C1.98 0.495 1.98 0.495 4 1 C3.67 2.32 3.34 3.64 3 5 C1.68 5.33 0.36 5.66 -1 6 C-0.67 4.02 -0.34 2.04 0 0 Z " fill="#2C5075" transform="translate(300,234)"/>
<path d="M0 0 C0.05399736 1.45792884 0.09279177 2.91642712 0.125 4.375 C0.14820313 5.18710938 0.17140625 5.99921875 0.1953125 6.8359375 C0 9 0 9 -2 11 C-3.1577506 7.52674819 -3.06866652 4.63932552 -3 1 C-1 0 -1 0 0 0 Z " fill="#495F76" transform="translate(250,230)"/>
<path d="M0 0 C1.98 0 3.96 0 6 0 C5.67 2.64 5.34 5.28 5 8 C4.67 8 4.34 8 4 8 C4 6.02 4 4.04 4 2 C2.68 2 1.36 2 0 2 C0 1.34 0 0.68 0 0 Z " fill="#344E68" transform="translate(167,222)"/>
<path d="M0 0 C0 1.32 0 2.64 0 4 C-0.66 4 -1.32 4 -2 4 C-2 3.34 -2 2.68 -2 2 C-3.65 2 -5.3 2 -7 2 C-7 1.34 -7 0.68 -7 0 C-3.86650268 -1.04449911 -3.01031744 -0.93423645 0 0 Z " fill="#364766" transform="translate(238,222)"/>
<path d="M0 0 C1.32 0.33 2.64 0.66 4 1 C3.01 1.495 3.01 1.495 2 2 C2 2.99 2 3.98 2 5 C1.34 5 0.68 5 0 5 C0 5.66 0 6.32 0 7 C-1.32 6.34 -2.64 5.68 -4 5 C-3.34 5 -2.68 5 -2 5 C-2 4.34 -2 3.68 -2 3 C-1.34 3 -0.68 3 0 3 C0 2.01 0 1.02 0 0 Z " fill="#27343E" transform="translate(211,261)"/>
<path d="M0 0 C0.33 0.66 0.66 1.32 1 2 C0.06421005 4.35981813 -0.93347808 6.69631264 -2 9 C-2.66 8.67 -3.32 8.34 -4 8 C-3.40072174 4.64404172 -2.15377564 2.62198774 0 0 Z " fill="#0F1A29" transform="translate(230,254)"/>
<path d="M0 0 C1.65 0 3.3 0 5 0 C5 0.66 5 1.32 5 2 C5.66 2 6.32 2 7 2 C6.67 2.99 6.34 3.98 6 5 C4.02 4.01 2.04 3.02 0 2 C0 1.34 0 0.68 0 0 Z " fill="#193049" transform="translate(92,253)"/>
<path d="M0 0 C0.99 0.33 1.98 0.66 3 1 C3 2.65 3 4.3 3 6 C3.66 6 4.32 6 5 6 C4.67 7.65 4.34 9.3 4 11 C2.23537317 7.91190305 2 6.76687864 2 3 C1.34 3 0.68 3 0 3 C0 2.01 0 1.02 0 0 Z " fill="#293C51" transform="translate(368,251)"/>
<path d="M0 0 C3.93846154 3.32307692 3.93846154 3.32307692 4.25 6.75 C4.1675 7.4925 4.085 8.235 4 9 C2.68 8.34 1.36 7.68 0 7 C0 4.69 0 2.38 0 0 Z " fill="#3D5973" transform="translate(75,223)"/>
<path d="M0 0 C0 0.33 0 0.66 0 1 C-3.63 1.66 -7.26 2.32 -11 3 C-10.67 2.01 -10.34 1.02 -10 0 C-6.7169902 -1.6415049 -3.57454967 -0.51888624 0 0 Z " fill="#5E7C92" transform="translate(141,228)"/>
<path d="M0 0 C1.32 0.66 2.64 1.32 4 2 C3.01 2.33 2.02 2.66 1 3 C-0.20882096 5.00016466 -0.20882096 5.00016466 -1 7 C-1.99 6.01 -2.98 5.02 -4 4 C-2.68 3.34 -1.36 2.68 0 2 C0 1.34 0 0.68 0 0 Z " fill="#55718C" transform="translate(362,222)"/>
<path d="M0 0 C0.33 0 0.66 0 1 0 C1 2.97 1 5.94 1 9 C-0.32 9.33 -1.64 9.66 -3 10 C-3 8.68 -3 7.36 -3 6 C-2.34 6 -1.68 6 -1 6 C-0.67 4.02 -0.34 2.04 0 0 Z " fill="#1A304A" transform="translate(170,248)"/>
<path d="M0 0 C3.3 0 6.6 0 10 0 C6 3 6 3 2.25 2.6875 C1.1775 2.460625 0.105 2.23375 -1 2 C-0.67 1.34 -0.34 0.68 0 0 Z " fill="#244969" transform="translate(346,243)"/>
<path d="M0 0 C1.04449911 3.13349732 0.93423645 3.98968256 0 7 C-0.66 7 -1.32 7 -2 7 C-2.33 7.99 -2.66 8.98 -3 10 C-3.33 9.34 -3.66 8.68 -4 8 C-3.22265625 6.0546875 -3.22265625 6.0546875 -2.0625 3.875 C-1.49208984 2.78832031 -1.49208984 2.78832031 -0.91015625 1.6796875 C-0.60980469 1.12539062 -0.30945313 0.57109375 0 0 Z " fill="#274A62" transform="translate(302,227)"/>
<path d="M0 0 C0.66 0.33 1.32 0.66 2 1 C2 2.65 2 4.3 2 6 C0.0625 5.1875 0.0625 5.1875 -2 4 C-2.33 3.01 -2.66 2.02 -3 1 C-2.01 0.67 -1.02 0.34 0 0 Z " fill="#44688C" transform="translate(258,223)"/>
<path d="M0 0 C2.64 0 5.28 0 8 0 C8 0.99 8 1.98 8 3 C6.35 3 4.7 3 3 3 C3 2.34 3 1.68 3 1 C2.34 1 1.68 1 1 1 C0.67 1.66 0.34 2.32 0 3 C0 2.01 0 1.02 0 0 Z " fill="#3D678F" transform="translate(339,224)"/>
<path d="M0 0 C0.33 0 0.66 0 1 0 C1 3.96 1 7.92 1 12 C-0.32 11.67 -1.64 11.34 -3 11 C-2.34 10.34 -1.68 9.68 -1 9 C-0.53993654 6.79749008 -0.53993654 6.79749008 -0.375 4.375 C-0.30023438 3.55773437 -0.22546875 2.74046875 -0.1484375 1.8984375 C-0.09945312 1.27195312 -0.05046875 0.64546875 0 0 Z " fill="#050F1C" transform="translate(73,256)"/>
<path d="M0 0 C0.66 1.32 1.32 2.64 2 4 C1.34 4.66 0.68 5.32 0 6 C-0.69748583 7.31747324 -1.36959957 8.64914193 -2 10 C-3.39195915 5.82412255 -1.82323219 3.86525224 0 0 Z " fill="#464B55" transform="translate(287,259)"/>
<path d="M0 0 C0.66 0 1.32 0 2 0 C2.33 1.65 2.66 3.3 3 5 C1.35 5.33 -0.3 5.66 -2 6 C-1.34 4.02 -0.68 2.04 0 0 Z " fill="#091621" transform="translate(213,262)"/>
<path d="M0 0 C0.33 0 0.66 0 1 0 C1 1.98 1 3.96 1 6 C-0.32 6.33 -1.64 6.66 -3 7 C-2.25 2.25 -2.25 2.25 0 0 Z " fill="#12263B" transform="translate(387,257)"/>
<path d="M0 0 C0.99 0.66 1.98 1.32 3 2 C3 2.99 3 3.98 3 5 C2.38125 4.814375 1.7625 4.62875 1.125 4.4375 C-1.04160178 3.76313824 -1.04160178 3.76313824 -3 5 C-1.125 1.125 -1.125 1.125 0 0 Z " fill="#213243" transform="translate(231,258)"/>
<path d="M0 0 C0.66 0.66 1.32 1.32 2 2 C1.625 5.125 1.625 5.125 1 8 C0.34 8 -0.32 8 -1 8 C-1.125 2.25 -1.125 2.25 0 0 Z " fill="#0E1653" transform="translate(279,252)"/>
<path d="M0 0 C0.99 0.33 1.98 0.66 3 1 C3 1.99 3 2.98 3 4 C1.68 4.33 0.36 4.66 -1 5 C-1.33 3.68 -1.66 2.36 -2 1 C-1.34 0.67 -0.68 0.34 0 0 Z " fill="#09152C" transform="translate(98,250)"/>
<path d="M0 0 C0.66 0 1.32 0 2 0 C1.34 2.31 0.68 4.62 0 7 C-0.66 7 -1.32 7 -2 7 C-1.125 1.125 -1.125 1.125 0 0 Z " fill="#14263F" transform="translate(294,245)"/>
<path d="M0 0 C-0.33 0.66 -0.66 1.32 -1 2 C-4.0625 2.625 -4.0625 2.625 -7 3 C-7 2.01 -7 1.02 -7 0 C-3.86650268 -1.04449911 -3.01031744 -0.93423645 0 0 Z " fill="#1B4766" transform="translate(90,244)"/>
<path d="M0 0 C0.66 0.33 1.32 0.66 2 1 C2 1.66 2 2.32 2 3 C1.01 3 0.02 3 -1 3 C-1 5.64 -1 8.28 -1 11 C-1.33 11 -1.66 11 -2 11 C-2 7.7 -2 4.4 -2 1 C-1.34 0.67 -0.68 0.34 0 0 Z " fill="#12304C" transform="translate(75,234)"/>
<path d="M0 0 C1.98362069 2.91708924 1.9876191 4.12380904 1.625 7.75 C1.41875 8.8225 1.2125 9.895 1 11 C0.67 11 0.34 11 0 11 C-0.19406478 9.35492782 -0.38007935 7.70890406 -0.5625 6.0625 C-0.66691406 5.14597656 -0.77132813 4.22945312 -0.87890625 3.28515625 C-0.91886719 2.53105469 -0.95882813 1.77695313 -1 1 C-0.67 0.67 -0.34 0.34 0 0 Z " fill="#0F206F" transform="translate(389,221)"/>
<path d="M0 0 C-2.39509338 2.89932357 -4.31245243 3.50168276 -8 4 C-7.67 3.01 -7.34 2.02 -7 1 C-4.53721199 -0.231394 -2.7204945 -0.07159196 0 0 Z " fill="#33496D" transform="translate(261,221)"/>
</svg>
